<svg width="329" height="309" viewBox="0 0 329 309" fill="none" xmlns="http://www.w3.org/2000/svg">
<path d="M30.28 57.34C11.77 83.02 0.749947 114.38 0.0699469 145.74C-0.400053 167.43 3.03995 189.31 10.45 209.71C22.29 242.3 45.81 269.42 77.23 284.42C105.83 298.07 138.81 301.22 170.13 296.36C219.44 288.71 266.95 259.2 287.78 213.86C314.93 154.76 295.95 78.22 248.96 36.82C207.53 0.329983 140.65 -10.31 88.23 10.87C64.92 20.29 44.93 37.03 30.29 57.34H30.28Z" fill="#17243B"/>
<path d="M177.51 283.9C178.14 271.09 177.64 258.32 178.48 245.53C179.26 233.58 184.5 223.18 188.11 211.94L189.87 190.46C193.71 179.6 190.38 166.62 194.22 155.76C198.58 143.43 186.56 132.62 198.45 127.18C197.82 125.06 195.08 124.61 193.2 123.44C190.09 121.51 189.26 117.19 190.16 113.64C191.06 110.09 193.28 107.06 195.19 103.93C201.4 93.73 205.6 80.44 205 68.51C204.95 67.47 203.71 67.55 203.05 66.74C202.37 65.91 201.25 65.58 200.51 64.8C199.36 63.6 199.42 61.69 199.72 60.05C201.31 51.15 207.56 43.22 215.85 39.6C220.25 37.68 225.18 38.15 229.93 37.52C234.74 36.88 238.9 39.89 242.88 39.35C248.62 38.58 255.31 39.57 262.27 45.7C266.7 49.61 271.52 57.59 273.12 63.27C277.02 77.12 278.22 91.68 286.38 103.99C288.02 106.46 289.89 108.8 291.09 111.51C292.29 114.22 292.74 117.45 291.43 120.11C290.49 122.02 288.31 123.08 287.36 124.98C283.8 132.11 281.31 138.66 281.95 146.66C282.63 155.15 276 154.95 277.81 163.27C281.22 178.95 276.13 185.49 277.76 201.21C280.59 228.39 281.41 242.75 281.3 263.09" fill="white"/>
<path d="M104.35 92.07C99.66 88.85 91.6601 85.02 84.1601 80.52C82.5501 79.55 75.01 74.84 72.7 70.76C69.59 65.27 76.4601 68.81 73.8001 65.97C72.6601 64.76 71.8101 63.04 71.2701 61.49C71.0301 60.79 70.72 59.88 70.96 59.14C71.33 57.95 72.8101 57.85 73.7701 58.29C73.9601 58.37 75.8401 59.32 75.7801 59.04C75.5601 57.92 75.07 55.55 76.99 55.88C78.56 56.15 79.66 58.02 80.73 59.04C84.38 62.52 86.96 65.87 91.83 67.2C92.94 67.5 95.11 67.17 95.48 65.6C95.57 65.21 95.56 64.8 95.49 64.41C95.13 62.29 95.38 60.07 96.19 58.07C96.51 57.27 97.6201 57.21 98.0201 57.96C98.9501 59.69 99.4501 61.67 100.04 63.56C101.98 69.77 101.12 72.13 109.66 82.71L104.34 92.07H104.35Z" fill="white"/>
<path d="M93.3799 77.76C93.4399 77.45 93.42 76.1 94.05 74.42C94.36 73.57 94.83 72.71 95.52 71.83C96.18 70.93 97.1399 69.89 97.4699 68.36C97.7899 66.85 97.36 65.44 97.03 64.34C96.86 63.78 96.6899 63.26 96.5799 62.78C96.4599 62.31 96.4099 61.89 96.3799 61.44C96.3199 60.57 96.42 59.88 96.56 59.44C96.7 58.99 96.88 58.8 96.93 58.73C97.07 58.54 97.15 58.35 97.18 58.09C97.22 57.85 97.2199 57.57 97.1299 57.33C97.0399 57.09 96.8499 56.9 96.4999 56.88C96.1699 56.86 95.6399 57.04 95.2299 57.62C95.1199 57.78 94.7899 58.26 94.5899 59.02C94.3799 59.77 94.32 60.74 94.43 61.79C94.57 64.04 96.18 66.32 95.66 68.21C95.43 69.16 94.6699 70.08 93.9899 71.07C93.2799 72.09 92.7799 73.19 92.4899 74.16C91.9099 76.12 92.0499 77.57 92.0799 77.77C92.2599 78.69 93.2699 78.49 93.3699 77.77L93.3799 77.76Z" fill="#121C2D"/>
<path d="M110.3 81.94C110.12 81.68 109.2 80.76 108.1 79.37C107 77.98 105.74 76.09 104.72 74.09C103.69 72.09 102.94 69.97 102.49 68.29C102.04 66.61 101.85 65.37 101.81 65.11C101.62 63.77 99.5399 63.58 99.8299 65.57C99.8899 65.84 100.11 67.19 100.66 68.99C101.2 70.8 102.08 73.06 103.27 75.15C104.43 77.25 105.85 79.18 107.07 80.54C108.28 81.91 109.25 82.75 109.4 82.85C110.08 83.33 110.74 82.54 110.31 81.94H110.3Z" fill="#121C2D"/>
<path d="M91.37 67.68C91.06 67.26 88.32 64.81 85.56 62.38C84.19 61.17 82.82 59.97 81.76 59.03C80.73 58.1 80.14 57.38 80.02 57.22C79.7 56.83 79.11 56.85 78.67 57.11C78.24 57.37 78 57.95 78.53 58.59C78.67 58.77 79.43 59.62 80.56 60.58C81.69 61.54 83.12 62.69 84.55 63.86C87.41 66.19 90.26 68.49 90.51 68.63C91.07 68.94 91.72 68.15 91.36 67.66L91.37 67.68Z" fill="#121C2D"/>
<path d="M87.7 76.97C87.91 76.8 88.83 75.24 90 73.9C91.14 72.53 92.5001 71.4 92.6601 71.27C93.0601 70.93 91.9301 69.24 91.3001 69.77C91.1301 69.91 89.6601 71.27 88.5401 72.88C87.3801 74.46 86.58 76.22 86.57 76.38C86.53 76.73 87.46 77.17 87.71 76.98L87.7 76.97Z" fill="#121C2D"/>
<path d="M88.74 70.39C88.35 69.93 85.03 67.19 81.7 64.49C80.06 63.14 78.33 61.79 77.13 60.76C75.92 59.72 75.35 58.85 75.23 58.67C74.93 58.21 74.33 58.09 73.85 58.27C73.38 58.43 73.05 59.04 73.62 59.9C73.77 60.14 74.6 61.25 75.98 62.36C77.35 63.47 79.06 64.73 80.78 66.05C84.22 68.66 87.6301 71.24 87.9201 71.4C88.5801 71.76 89.2 70.94 88.74 70.4V70.39Z" fill="#121C2D"/>
<path d="M85.6099 74.1C85.2999 73.69 82.63 71.18 79.68 68.95C78.19 67.83 76.6799 66.86 75.7299 65.98C74.7499 65.11 74.3199 64.36 74.2299 64.21C73.9999 63.82 73.4299 63.74 72.9399 63.9C72.4699 64.05 72.09 64.59 72.56 65.35C72.68 65.56 73.35 66.57 74.55 67.55C75.73 68.55 77.34 69.49 78.79 70.52C81.74 72.58 84.4899 74.94 84.7499 75.06C85.2999 75.37 85.9599 74.59 85.6099 74.1Z" fill="#121C2D"/>
<path d="M102.33 90C101.98 89.6 100.21 88.23 97.5899 86.92C95.0099 85.6 91.7499 83.91 88.5799 82.09C85.4199 80.27 82.38 78.28 80.17 76.54C77.94 74.82 76.5199 73.42 76.2099 73.13C74.6799 71.59 72.7199 72.5 74.9599 74.73C75.2799 75.03 76.8399 76.5 79.2099 78.27C81.5799 80.04 84.78 82.06 88.06 83.84C91.33 85.63 94.68 87.25 97.23 88.46C99.77 89.66 101.27 90.8 101.49 90.96C102.48 91.64 103.2 90.92 102.34 89.99L102.33 90Z" fill="#121C2D"/>
<path d="M211.87 71.03C211.66 70.6 211.23 70.3 210.75 70.28C210.46 70.27 210.16 70.25 209.87 70.28C209.41 70.32 209.03 70.5 208.77 70.89C208.54 71.23 208.43 71.65 208.42 72.05C208.42 72.53 208.67 73 209.02 73.31C209.28 73.54 209.61 73.7 209.95 73.74C210.41 73.79 210.87 73.64 211.23 73.35C211.65 73 211.94 72.55 212.01 71.96C212.05 71.67 212.01 71.33 211.86 71.04L211.87 71.03Z" fill="black"/>
<path d="M230.79 71.5C230.58 71.07 230.15 70.77 229.67 70.75C229.38 70.74 229.08 70.72 228.79 70.75C228.33 70.79 227.95 70.97 227.69 71.36C227.46 71.7 227.35 72.12 227.34 72.52C227.34 73 227.59 73.47 227.94 73.78C228.2 74.01 228.53 74.17 228.87 74.21C229.33 74.26 229.79 74.11 230.15 73.82C230.57 73.47 230.86 73.02 230.93 72.43C230.97 72.14 230.93 71.8 230.78 71.51L230.79 71.5Z" fill="black"/>
<path d="M249.25 82.81C249.42 82.75 250 81.94 250.6 81.17C251.2 80.4 251.83 79.66 251.9 79.57C252.08 79.34 250.57 77.99 250.3 78.33C250.22 78.42 249.61 79.3 249.09 80.21C248.56 81.12 248.13 82.06 248.14 82.15C248.16 82.37 249.05 82.87 249.25 82.8V82.81Z" fill="#0F1C2E"/>
<path d="M245.35 91.16C245.08 91.72 244.55 93.25 243.14 95.12C241.78 97.02 239.5 99.17 236.44 101.09C234.91 102.05 233.18 102.92 231.31 103.71C229.44 104.48 227.41 105.21 225.33 105.6C221.15 106.37 216.39 105.78 212.58 103.45C210.68 102.3 209.09 100.72 207.75 98.92C206.41 97.12 205.19 95.21 204.34 93.29C203.48 91.37 203.04 89.38 203.22 87.53C203.39 85.69 204.15 83.92 204.77 82.18C205.09 81.31 205.37 80.43 205.58 79.54C205.76 78.66 205.9 77.81 205.95 77.01C206.08 75.41 206.07 74.02 206.09 72.85C206.09 70.49 206.26 69.02 206.34 68.5C206.69 65.84 207.38 64.31 207.01 63.86C206.85 63.67 206.42 63.81 205.79 64.54C205.17 65.26 204.49 66.7 204.26 68.75C204.17 69.32 204.06 71.01 204.07 73.4C204.07 74.59 204.07 75.97 203.91 77.44C203.77 78.92 203.34 80.43 202.68 82.17C202.07 83.89 201.26 85.9 201.25 88.22C201.23 90.51 201.96 92.8 203 94.88C204.07 96.97 205.36 98.92 206.89 100.8C207.66 101.73 208.51 102.63 209.47 103.43C210.43 104.23 211.48 104.91 212.58 105.49C217.03 107.78 222.23 108.1 226.7 106.99C231.12 105.79 234.96 103.93 238.03 101.85C241.12 99.79 243.3 97.4 244.59 95.45C245.28 94.5 245.65 93.6 246 92.97C246.26 92.3 246.43 91.86 246.49 91.68C246.65 91.29 246.72 90.93 246.76 90.61C246.8 90.3 246.82 90.03 246.82 89.82C246.82 89.4 246.72 89.18 246.58 89.15C246.28 89.09 245.86 89.78 245.33 91.13L245.35 91.16Z" fill="#0F1C2E"/>
<path d="M247.55 89.51C247.78 89.47 248.35 89.28 249.16 88.94C249.96 88.57 251.01 88.05 252.07 87.19C254.21 85.54 256.45 82.52 256.65 78.82C256.71 76.96 256.07 75.13 254.95 73.75C253.84 72.37 252.14 71.5 250.57 71.49C249.03 71.47 247.79 72.02 246.99 72.59C246.19 73.17 245.77 73.74 245.65 73.95C245.28 74.47 245.23 75.04 245.31 75.41C245.42 75.8 245.64 76.01 245.89 76.06C246.14 76.11 246.42 76.02 246.65 75.83C246.9 75.64 247.11 75.37 247.41 74.96C247.5 74.86 247.73 74.49 248.29 74.13C248.83 73.77 249.71 73.39 250.73 73.46C251.71 73.5 252.86 74.1 253.66 75.16C254.47 76.2 254.94 77.67 254.85 79.09C254.75 80.54 254.21 82.02 253.47 83.23C252.73 84.45 251.79 85.44 250.86 86.17C249.94 86.9 249.05 87.41 248.38 87.73C247.71 88.06 247.26 88.24 247.15 88.29C246.18 88.76 246.47 89.75 247.55 89.52V89.51Z" fill="#0F1C2E"/>
<path d="M223.9 121.76C224.3 120.8 224.11 108.28 224.24 107.55C224.27 106.55 222.26 106.17 222.21 107.59C222.09 108.43 222.66 121.21 222.61 121.69C222.72 122.26 223.74 122.3 223.9 121.76Z" fill="#0F1C2E"/>
<path d="M251.18 112.87C251.21 112.09 250.81 106.46 250.87 100.86C250.88 95.25 251.35 89.69 251.41 89.03C251.56 87.32 249.58 86.67 249.38 89.03C249.32 89.69 248.94 95.46 249.09 101.18C249.18 106.9 249.8 112.53 249.9 112.96C250.12 113.92 251.13 113.79 251.19 112.88L251.18 112.87Z" fill="#0F1C2E"/>
<path d="M253.69 115.91C253.25 116.26 251.65 117.94 249.15 119.87C246.66 121.79 243.18 123.91 239.35 124.85C235.56 125.84 231.52 125.43 228.73 124.35C225.89 123.31 224.36 121.75 224.03 121.48C223.19 120.7 222.38 120.39 221.91 120.67C221.69 120.8 221.59 121.08 221.7 121.51C221.76 121.72 221.86 121.98 222.04 122.25C222.23 122.52 222.49 122.81 222.81 123.14C223.19 123.45 225.08 125.22 228.36 126.31C231.58 127.43 236.1 127.74 240.24 126.47C244.38 125.28 247.97 122.89 250.42 120.84C252.89 118.78 254.36 117.09 254.58 116.85C255.47 115.72 254.67 115.07 253.68 115.92L253.69 115.91Z" fill="#0F1C2E"/>
<path d="M250.55 129.08C250.3 129.23 249.68 129.64 248.8 130.25C248.35 130.54 247.86 130.95 247.26 131.28C246.66 131.62 246 132 245.29 132.4C242.46 133.96 238.59 135.7 234.53 135.97C230.5 136.3 226.48 135.15 223.99 133.29C221.41 131.53 220.22 129.6 219.95 129.26C219.33 128.27 218.68 127.8 218.14 127.86C217.89 127.91 217.7 128.13 217.69 128.61C217.66 129.11 217.88 129.76 218.4 130.57C218.7 130.99 220.18 133.18 223.17 135.12C226.11 137.09 230.73 138.29 235.16 137.74C236.25 137.53 237.34 137.35 238.4 137.1C239.43 136.76 240.44 136.43 241.42 136.1C243.28 135.23 245.05 134.47 246.43 133.54C247.14 133.11 247.79 132.71 248.38 132.35C248.93 131.94 249.42 131.58 249.83 131.27C250.65 130.65 251.18 130.25 251.3 130.14C252.42 129.17 251.73 128.4 250.56 129.08H250.55Z" fill="#0F1C2E"/>
<path d="M259.57 60.02C259.01 60.29 257.47 61.13 255.11 62.08C252.76 63 249.56 64.03 245.83 64.25C243.98 64.35 241.98 64.25 240.01 63.81C238.04 63.35 236.08 62.54 234.29 61.41C232.5 60.27 230.91 58.79 229.67 57.08C229.09 56.2 228.54 55.3 228.17 54.33C227.95 53.86 227.82 53.36 227.68 52.87C227.62 52.74 227.51 52.11 227.41 51.62L227.12 50.1L226.02 50.69L224.99 51.2C224.78 51.31 224.77 51.29 224.66 51.34L224.39 51.44C224.21 51.51 224.02 51.56 223.84 51.62C223.1 51.84 222.33 51.99 221.56 52.1C220.02 52.33 218.44 52.43 216.9 52.65C213.78 53.07 210.98 54.24 208.92 55.66C206.81 57.05 205.35 58.62 204.36 59.86C203.36 61.11 202.86 62.07 202.65 62.43C201.37 64.71 201.56 66.49 201.98 66.69C202.21 66.81 202.55 66.58 202.94 65.97C203.35 65.37 203.84 64.39 204.63 63.05C204.71 62.9 204.86 62.65 205.09 62.31C205.31 61.96 205.62 61.53 206.02 61.02C206.83 60.02 208.01 58.7 209.78 57.48C211.54 56.26 213.85 55.1 216.71 54.64C218.15 54.39 219.75 54.28 221.48 54.03C222.34 53.91 223.24 53.75 224.16 53.49C224.62 53.36 225.08 53.2 225.53 53.02L225.7 52.94L225.76 52.91L225.84 53.21C226.01 53.72 226.13 54.26 226.36 54.77C226.57 55.28 226.78 55.8 227.06 56.29C227.31 56.8 227.62 57.27 227.93 57.74C229.19 59.64 230.93 61.26 232.85 62.55C234.77 63.85 236.93 64.77 239.13 65.32C241.34 65.87 243.55 66 245.61 65.88C249.76 65.64 253.26 64.44 255.75 63.4C258.24 62.32 259.77 61.42 260.09 61.22C262.44 59.72 261.79 58.91 259.55 60.05L259.57 60.02Z" fill="#0F1C2E"/>
<path d="M249.03 72.43C249.11 71.97 247.38 66.68 247.26 66.35C247.11 65.92 245.16 66.49 245.37 67.07C245.49 67.4 247.63 72.67 247.81 72.85C248.02 73.05 248.98 72.7 249.03 72.43Z" fill="#0F1C2E"/>
<path d="M196.67 125.52C196.43 125.38 195.79 124.99 194.95 124.13C194.53 123.71 194.07 123.18 193.58 122.57C193.09 121.95 192.5 121.26 192.08 120.54C191.65 119.8 191.33 118.94 191.19 117.98C191.05 117.02 191.08 115.98 191.24 114.91C191.59 112.77 192.33 110.48 193.31 108.36C194.29 106.23 195.55 104.21 196.8 102.32C198.1 100.42 199.17 98.46 200.01 96.75C201.7 93.31 202.53 90.65 202.69 90.08C203.13 88.58 202.75 87.48 202.27 87.37C201.75 87.25 201.22 87.92 200.67 89.77C200.52 90.28 199.74 92.85 198.09 96.23C197.68 97.07 197.22 97.97 196.71 98.88C196.2 99.8 195.61 100.7 194.98 101.69C193.73 103.66 192.46 105.81 191.48 108.13C190.52 110.46 189.79 112.84 189.53 115.26C189.27 117.66 189.83 120.13 191.05 121.79C192.25 123.35 193.27 124.52 194.2 125.36C195.1 126.2 195.88 126.58 196.09 126.66C196.55 126.84 196.95 126.85 197.21 126.76C197.47 126.66 197.57 126.52 197.57 126.38C197.53 126.07 197.23 125.84 196.7 125.52H196.67Z" fill="#0F1C2E"/>
<path d="M245.96 42.02C245.63 41.62 244.7 40.56 243 39.51C241.31 38.48 238.87 37.48 235.95 36.99C233.03 36.46 229.68 36.3 226.15 36.6C222.61 36.91 218.9 37.76 215.45 39.25C211.99 40.71 208.76 42.73 206.11 45.12C203.47 47.52 201.46 50.32 200.19 53C199.9 53.68 199.56 54.32 199.35 54.97C199.14 55.62 198.93 56.25 198.74 56.84C198.41 58.11 198.28 59.18 198.18 60.15C197.99 62.06 198.14 63.42 198.25 63.92C198.37 64.55 198.58 65.16 198.96 65.66C199.33 66.17 199.9 66.51 200.38 66.57C201.36 66.67 201.68 66.17 201.68 65.97C201.69 65.7 201.3 65.55 200.94 65.3C200.77 65.16 200.68 65.01 200.54 64.7C200.41 64.39 200.27 63.88 200.19 63.22C200.11 62.56 199.69 58.38 202.18 53.37C203.4 50.89 205.35 48.32 207.9 46.09C210.44 43.86 213.53 41.94 216.87 40.6C220.2 39.26 223.74 38.45 227.1 38.19C230.49 37.94 233.69 38.13 236.37 38.64C239.06 39.17 241.21 40.04 242.61 40.95C244.04 41.83 244.73 42.65 244.93 42.82C245.38 43.21 245.67 43.55 245.96 43.71C246.23 43.88 246.44 43.93 246.57 43.85C246.8 43.72 246.73 43 245.95 42.02H245.96Z" fill="#0F1C2E"/>
<path d="M286.51 129.59C286.67 129.12 286.74 128.24 287.02 127.34C287.29 126.45 288.18 125.57 289.56 124.59C290.23 124.09 291.03 123.53 291.73 122.7C292.43 121.89 293 120.87 293.34 119.74C294.03 117.46 293.88 114.82 293.02 112.26C292.16 109.65 290.52 107.31 288.81 104.99C287.08 102.67 285.27 100.35 284.04 97.61C282.77 94.88 281.9 91.85 280.99 88.76C280.09 85.68 279.24 82.54 278.55 79.38C277.16 73.09 276.51 66.48 274.3 60.55C272.19 54.63 268.9 49.5 265.11 45.88C261.34 42.2 257.14 40.19 253.91 39.18C250.64 38.19 248.31 38.09 247.51 38.06C245.41 37.98 243.7 38.28 242.56 38.71C241.42 39.11 240.83 39.57 240.81 39.82C240.8 40.09 241.35 40.2 242.53 40.13C243.71 40.1 245.53 39.94 248.12 40.13C248.83 40.21 251 40.31 254.03 41.36C257.05 42.38 260.94 44.38 264.43 47.98C267.95 51.52 271 56.55 272.93 62.35C274.92 68.13 275.54 74.73 277.13 81.19C277.9 84.41 278.82 87.58 279.75 90.69C280.69 93.79 281.68 96.89 283.2 99.7C284.73 102.52 286.71 104.83 288.35 107.1C290.01 109.37 291.36 111.62 291.9 113.94C292.47 116.25 292.36 118.52 291.58 120.25C291.2 121.12 290.65 121.81 290.05 122.39C289.42 122.96 288.73 123.45 288.09 123.95C287.45 124.45 286.87 124.98 286.44 125.57C286.01 126.16 285.74 126.8 285.63 127.32C285.41 128.36 285.37 128.92 285.3 129.15C285.14 130.12 284.72 130.66 284.41 130.96C284.09 131.25 283.82 131.34 283.8 131.49C283.77 131.61 284.08 131.87 284.75 131.69C285.39 131.52 286.2 130.79 286.52 129.61L286.51 129.59Z" fill="#0F1C2E"/>
<path d="M216.76 81.87C216.64 81.71 215.87 81.25 215.32 80.5C215.06 80.12 214.93 79.71 215.04 79.28C215.13 78.84 215.5 78.33 215.97 77.84C216.98 76.85 218.17 75.74 218.92 74.69C219.7 73.65 220.02 72.67 220.09 72.48C220.26 71.94 219.79 71.5 219.3 71.42C218.79 71.33 218.28 71.47 218.13 71.94C218.08 72.08 217.89 72.75 217.26 73.64C216.65 74.56 215.63 75.55 214.53 76.77C214 77.4 213.45 78.21 213.36 79.21C213.26 80.21 213.74 81.09 214.21 81.59C215.18 82.6 215.97 82.9 216.08 82.96C216.62 83.13 217.09 82.22 216.77 81.87H216.76Z" fill="#0F1C2E"/>
<path d="M225.86 86.38C225.72 86.48 225.3 87 224.62 87.6C223.94 88.2 222.97 88.86 221.92 89.32C220.87 89.79 219.75 90.04 218.87 90.12C217.99 90.2 217.37 90.15 217.24 90.14C216.6 90.08 216.01 92.06 217.19 92.17C217.35 92.17 218.14 92.22 219.21 92.05C220.28 91.89 221.62 91.51 222.82 90.86C224.03 90.23 225.1 89.37 225.8 88.61C226.51 87.85 226.88 87.22 226.91 87.12C227.08 86.66 226.19 86.15 225.86 86.37V86.38Z" fill="#0F1C2E"/>
<path d="M206.08 67.11C206.3 67.01 207.47 65.85 208.95 65.2C210.4 64.5 211.98 64.36 212.16 64.35C212.61 64.32 212.74 62.27 211.91 62.34C211.69 62.34 209.7 62.65 208.04 63.66C206.34 64.6 205.14 66.12 205.11 66.26C204.99 66.59 205.81 67.21 206.08 67.11Z" fill="#0F1C2E"/>
<path d="M237.38 68.51C237.28 68.25 235.9 66.9 234.25 65.94C232.62 64.94 230.78 64.34 230.57 64.29C229.98 64.13 229.37 66.06 230.05 66.25C230.24 66.3 231.93 66.75 233.47 67.55C235.03 68.32 236.39 69.41 236.52 69.47C236.83 69.57 237.52 68.83 237.39 68.52L237.38 68.51Z" fill="#0F1C2E"/>
<path d="M242.07 223.7C241.54 223.54 239.28 223.13 236.25 222.28C233.22 221.44 229.43 220.1 225.82 218.39C224.91 217.97 224.04 217.49 223.17 217C222.3 216.52 221.45 216.05 220.62 215.59C218.96 214.66 217.4 213.83 216.04 213.02C213.32 211.44 211.37 210.31 210.95 210.07C208.79 208.83 207.22 210.26 210.14 211.94C210.55 212.17 212.55 213.3 215.33 214.88C216.71 215.68 218.36 216.52 220.07 217.44C220.93 217.9 221.81 218.37 222.71 218.85C223.59 219.34 224.52 219.8 225.47 220.21C229.24 221.9 233.17 223.15 236.24 223.9C239.3 224.65 241.49 224.95 241.8 224.98C243.22 225.08 243.31 224.06 242.07 223.72V223.7Z" fill="#0F1C2E"/>
<path d="M208.61 217.93C208.31 217.97 206.38 218.82 204.39 219.62C202.41 220.42 200.43 221.34 200.2 221.47C199.59 221.8 200.43 223.64 201.18 223.24C201.38 223.12 203.28 222.14 205.23 221.2C207.18 220.27 209.09 219.22 209.21 219.07C209.49 218.78 208.98 217.89 208.62 217.92L208.61 217.93Z" fill="#0F1C2E"/>
<path d="M223.36 218.16C222.76 218.12 218.37 218.38 214.05 217.88C209.72 217.46 205.55 216.29 205.06 216.14C203.79 215.77 202.83 217.61 204.64 218.13C205.14 218.28 209.6 219.42 214.13 219.68C218.65 220.04 223.12 219.54 223.45 219.44C224.21 219.25 224.07 218.23 223.36 218.15V218.16Z" fill="#0F1C2E"/>
<path d="M241.88 228.99C240.65 228.81 231.63 228.17 222.62 227.92C213.61 227.62 204.62 227.98 203.55 228.06C200.76 228.23 200.2 230.29 203.91 230.07C204.94 229.99 214.04 229.54 223.07 229.72C232.1 229.84 241.05 230.3 241.75 230.27C243.3 230.23 243.32 229.2 241.88 228.99Z" fill="#0F1C2E"/>
<path d="M221.39 115.44C221.13 114.48 218.3 116.96 217.69 117.34C216.4 118.16 215.05 118.88 213.68 119.55C210.82 120.93 207.83 122.04 204.86 123.16C204.12 123.44 203.39 123.72 202.65 124C200.15 124.97 197.36 124.84 194.98 123.61C191.27 121.69 187.58 119.75 183.74 118.07C179.57 116.25 175.25 114.82 171.07 113.05C163.34 109.77 156.21 105.24 149.13 100.73C136.75 92.86 124.27 83.76 113.09 74.18C112.75 73.89 112.27 73.89 111.93 74.18C110.34 75.5 106.09 79.3 105.73 82.41C105.57 83.8 105.54 85.21 105.14 86.57C104.36 89.25 102.86 91.65 102.27 94.43C102.25 94.53 102.22 94.64 102.2 94.76C101.79 96.73 101.25 100.01 102.7 101.51C109.03 108.02 114.53 115.27 120.55 122.07C126.81 129.14 134.16 135.04 141.33 141.14C149.05 147.71 156.78 154.28 164.5 160.84C171.79 167.04 176.96 176.13 180.65 184.92C180.65 184.92 182.29 213.37 182.27 213.78C182.2 214.97 182.13 216.15 182.06 217.34C181.66 224.17 179.99 231.07 178.46 237.72C176.86 244.7 175.02 251.62 173.28 258.57C172.52 261.6 171.72 264.7 172.05 267.8C172.43 271.28 174.21 274.44 176.17 277.35C181.51 285.26 188.47 292.08 196.49 297.26C197.3 297.78 198.26 298.04 199.21 297.94C201.01 297.75 201.36 296.52 201.61 295.36C202.99 289.13 202.86 282.68 202.72 276.3C202.39 260.81 202.06 245.32 200.8 229.88C200.05 220.64 198.96 211.39 199.28 202.12C199.86 185.58 204.91 169.56 209.91 153.79C211.96 147.33 214.01 140.87 216.06 134.4C217.97 128.37 220.19 122.43 221.36 116.2C221.41 115.96 221.45 115.7 221.39 115.46V115.44Z" fill="#6ADDB2"/>
<path d="M182.89 212.25C182.96 211.18 182.92 206.74 182.64 200.65C182.51 197.61 182.36 194.16 182.2 190.5C182.13 188.67 182.07 186.79 182.09 184.92C182.12 183.97 182.15 183.02 182.17 182.07C182.23 181.12 182.28 180.16 182.34 179.2C182.85 171.54 184.57 164.06 186.37 158.39C188.17 152.71 189.8 148.73 190.13 147.88C191.88 143.48 190.47 141.54 188.08 147.55C187.77 148.4 186.12 152.48 184.32 158.38C183.43 161.33 182.55 164.74 181.87 168.41C181.19 172.08 180.71 176.01 180.5 179.93C180.39 181.9 180.35 183.85 180.35 185.79C180.37 187.73 180.46 189.62 180.55 191.45C180.76 195.1 180.95 198.53 181.12 201.5C181.47 207.44 181.58 211.58 181.59 212.17C181.71 214.81 182.73 214.78 182.88 212.26L182.89 212.25Z" fill="#0F1C2E"/>
<path d="M212.9 140.9C212.36 140.94 210.13 141.29 207.06 141.8C206.32 141.92 205.53 142.05 204.7 142.19C204.29 142.24 203.89 141.82 203.95 141.39C203.95 141.34 203.97 141.28 203.99 141.23L204.1 140.91L204.34 140.24C204.5 139.79 204.67 139.34 204.83 138.89C205.17 137.99 205.53 137.08 205.9 136.17C207.38 132.55 209.13 129.07 210.64 126.44C212.15 123.81 213.38 122.03 213.63 121.65C214.98 119.7 213.73 117.95 211.83 120.7C211.57 121.09 210.3 122.98 208.79 125.74C207.26 128.5 205.52 132.16 204.08 135.91C203.72 136.85 203.37 137.79 203.05 138.72C202.89 139.19 202.74 139.65 202.58 140.11C202.5 140.36 202.44 140.51 202.35 140.85C202.26 141.19 202.25 141.56 202.32 141.91C202.46 142.61 202.91 143.21 203.52 143.53C203.82 143.69 204.16 143.79 204.49 143.81C204.66 143.81 204.82 143.81 204.98 143.79C205.15 143.77 205.21 143.75 205.33 143.73C206.17 143.57 206.98 143.41 207.72 143.26C210.7 142.68 212.78 142.26 213.08 142.18C214.4 141.81 214.17 140.81 212.9 140.9Z" fill="#0F1C2E"/>
<path d="M243.08 228.23C243.47 245.7 244.35 263.12 242.85 280.56C242.04 289.96 243.11 292.69 252.54 295.35C257.24 296.67 262.55 297.8 267.37 296.41C278.43 293.22 286.42 278.62 292.98 270.22C303.01 257.36 312.74 244.27 322.18 230.96C324.76 227.32 328.32 222.58 328.74 217.95C329.16 213.32 325.35 207.77 323.5 203.8C316.16 188.04 306.7 173.45 298.8 157.98C296.43 153.35 294.41 149.37 292.26 145.49C291.26 143.58 290.18 141.71 289.01 139.9C286.81 136.47 287.21 136.47 283.8 131.49C280.1 126.1 277.18 121.75 271.99 117.69C267.88 114.47 260.05 110.6 255.29 114.69C254.59 115.29 254.9 115.92 254.94 116.7C254.99 117.5 254.99 118.3 254.94 119.09C254.85 120.66 254.58 122.22 254.18 123.74C253.37 126.86 252.07 129.83 250.72 132.74C248.63 137.24 246.33 141.71 245.21 146.58C244.12 151.31 243.98 156.2 243.84 161.05C243.21 183.44 242.59 205.84 243.09 228.23H243.08Z" fill="#6ADDB2"/>
<path d="M267.66 174.76C267.87 175.48 268.93 178.39 270.55 182.33C272.17 186.27 274.37 191.24 276.7 196.13C281.34 205.92 286.6 215.34 287.24 216.45C288.9 219.35 291.08 219.08 288.85 215.19C288.23 214.11 282.8 204.58 278.05 194.82C275.66 189.95 273.4 185.04 271.76 181.24C270.11 177.44 269.06 174.74 268.88 174.37C268.1 172.68 267.15 173.09 267.65 174.77L267.66 174.76Z" fill="#0F1C2E"/>
<path d="M265.94 256.52C266.3 255.96 267.54 253.5 269.36 250.18C271.17 246.86 273.59 242.68 276.16 238.62C281.26 230.46 287.15 222.91 287.85 222.02C289.67 219.7 288.06 217.38 285.55 220.58C284.85 221.47 278.86 229.38 273.85 237.82C268.75 246.2 264.66 255.02 264.42 255.73C263.84 257.32 265.11 257.84 265.94 256.53V256.52Z" fill="#6ADDB2"/>
<path d="M288.22 218.71C286.3 221.19 262.68 256.66 261.19 258.91C259.26 261.83 260.44 263.71 263.06 259.76C264.52 257.55 288.38 221.01 289.26 219.48C290.24 217.77 289.35 217.26 288.23 218.71H288.22Z" fill="#0F1C2E"/>
<path d="M263.33 305.32C262.34 307.41 259.68 308.1 257.81 306.74C249.75 300.85 232.7 290.68 225.37 286.37C223.39 285.2 222.63 282.72 223.63 280.64C225.3 277.15 227.76 272.14 229.63 268.27C230.64 266.18 233.26 265.47 235.18 266.76L267.68 288.54C269.25 289.59 269.81 291.63 269 293.34L263.32 305.32H263.33Z" fill="white"/>
<path d="M260.63 306.74C260.25 306.81 259.49 306.89 258.62 306.44C258.24 306.24 257.64 305.76 257.04 305.33C256.43 304.88 255.74 304.41 255 303.89C252.02 301.83 248.04 299.23 243.38 296.31C238.72 293.39 233.38 290.13 227.69 286.74L226.62 286.1C226.29 285.9 225.85 285.65 225.6 285.48C225.04 285.1 224.61 284.55 224.35 283.92C224.09 283.29 224.02 282.58 224.15 281.91C224.21 281.56 224.33 281.27 224.49 280.92L225.06 279.76C226.57 276.66 228.1 273.52 229.64 270.38L230.21 269.2L230.49 268.63C230.57 268.48 230.65 268.34 230.75 268.21C231.14 267.68 231.72 267.3 232.36 267.13C233 266.97 233.69 267.03 234.28 267.32C234.44 267.38 234.55 267.47 234.72 267.57L235.26 267.93L236.33 268.65C239.18 270.57 242 272.46 244.73 274.3C250.19 277.98 255.34 281.43 259.84 284.46C262.09 285.97 264.18 287.38 266.08 288.65C266.32 288.81 266.55 288.97 266.78 289.12L267.12 289.35L267.37 289.53C267.67 289.79 267.91 290.1 268.08 290.43C268.43 291.1 268.45 291.85 268.27 292.46C268.23 292.62 268.17 292.76 268.1 292.91C268.01 293.1 267.92 293.29 267.84 293.47C267.67 293.83 267.5 294.18 267.35 294.51C267.04 295.17 266.76 295.75 266.52 296.26C266.03 297.28 265.69 298 265.52 298.37C261.84 306.13 262.7 309.03 267.69 298.53C267.86 298.16 268.21 297.44 268.69 296.41C268.93 295.89 269.21 295.3 269.53 294.63C269.69 294.27 269.84 294 270.04 293.53C270.23 293.06 270.36 292.52 270.39 291.96C270.45 290.84 270.1 289.59 269.26 288.59C268.86 288.09 268.23 287.67 267.82 287.41C267.36 287.11 266.9 286.79 266.41 286.47C264.48 285.18 262.35 283.76 260.06 282.23C255.48 279.17 250.24 275.69 244.7 271.99C241.93 270.14 239.07 268.24 236.18 266.31L235.62 265.94C235.39 265.8 235.16 265.67 234.91 265.57C234.41 265.37 233.88 265.24 233.34 265.21C232.26 265.16 231.17 265.48 230.3 266.13C229.87 266.45 229.48 266.84 229.19 267.3C229.04 267.51 228.9 267.79 228.81 267.98L228.52 268.57L227.38 270.95C225.85 274.13 224.33 277.3 222.83 280.43C221.98 282.32 222.41 284.66 223.81 286.12C224.16 286.48 224.56 286.8 224.98 287.06L226.07 287.7C226.79 288.12 227.51 288.54 228.22 288.96C233.9 292.31 239.19 295.5 243.76 298.33C248.32 301.16 252.15 303.62 254.91 305.51C255.6 305.98 256.22 306.41 256.77 306.8C257.06 307 257.28 307.17 257.57 307.36C257.86 307.56 258.16 307.71 258.44 307.81C259.59 308.25 260.42 308.06 260.72 308.02C262.13 307.74 262.9 306.88 263.22 306.32C263.54 305.72 263.5 305.37 263.38 305.31C263.24 305.24 263.01 305.45 262.61 305.79C262.2 306.11 261.59 306.55 260.66 306.72L260.63 306.74Z" fill="#0F1C2E"/>
<path d="M264.91 265.7C263.54 267.08 261.43 270.99 259.9 272.19C258.92 272.95 257.9 273.68 256.78 274.21C255.85 274.64 254.86 274.93 253.88 275.23C251.08 276.09 248.31 277.05 245.59 278.13C245.38 278.21 245.14 278.33 245.11 278.56C245.08 278.76 245.24 278.93 245.38 279.07C246.51 280.13 248 281.01 248.39 282.51C248.79 284.05 247.86 285.58 247.05 286.94C246.24 288.3 245.51 290.02 246.25 291.42C246.46 291.82 246.78 292.16 247.1 292.48C247.68 293.08 248.27 293.69 248.96 294.17C250.07 294.93 251.38 295.3 252.67 295.66C253.37 295.86 254.08 296.06 254.81 296.12C256.13 296.24 257.44 295.94 258.73 295.64C260.19 295.3 261.65 294.95 263.11 294.61C263.82 294.44 264.55 294.27 265.15 293.84C265.62 293.51 265.98 293.04 266.31 292.56C268.41 289.51 268.96 285.65 270.73 282.39C272.99 278.22 278.75 276.99 278.39 276.08C278.03 275.17 265.29 265.31 264.91 265.7Z" fill="white"/>
<path d="M258.49 296.35C258.95 296.41 261 296.57 263.64 295.7C264.92 295.26 266.5 294.6 267.66 293.11C268.22 292.37 268.57 291.54 268.88 290.78C269.2 290.03 269.51 289.27 269.83 288.51C271.1 285.5 272.76 282.75 274.34 280.81C275.9 278.86 277.26 277.67 277.52 277.4C278.98 276.1 278.12 274.13 276 276.05C275.72 276.33 274.29 277.65 272.64 279.79C270.98 281.92 269.26 284.98 268.04 288.14C267.37 289.68 266.93 291.38 266.11 292.34C265.26 293.35 263.96 293.93 262.82 294.32C260.52 295.09 258.78 295.01 258.55 295.04C257.47 295.11 257.35 296.13 258.47 296.33L258.49 296.35Z" fill="#0F1C2E"/>
<path d="M252.35 296C252.52 296.12 253.41 296.32 254.45 296.16C255.47 296.02 256.68 295.74 257.9 295.37C260.33 294.64 262.56 293.41 262.81 293.25C263.5 292.84 262.57 291.04 261.74 291.53C261.51 291.67 259.45 292.91 257.21 293.72C256.1 294.13 254.93 294.47 254.09 294.66C253.25 294.84 252.76 294.75 252.68 294.76C252.36 294.8 251.91 295.73 252.37 296.01L252.35 296Z" fill="#0F1C2E"/>
<path d="M247.08 293.72C247.23 293.82 247.94 294.07 248.95 294.16C249.96 294.25 251.25 294.16 252.47 293.87C254.93 293.28 257.06 292.16 257.31 292.07C257.97 291.75 257.25 289.85 256.37 290.27C256.11 290.37 254.04 291.55 251.9 292.17C250.83 292.48 249.73 292.62 248.9 292.6C248.07 292.6 247.5 292.46 247.41 292.48C247.03 292.5 246.7 293.47 247.07 293.72H247.08Z" fill="#0F1C2E"/>
<path d="M244.9 290.93C245.13 291.09 246.99 291.4 248.86 291.29C250.74 291.21 252.56 290.71 252.77 290.64C253.34 290.46 252.79 288.51 252.14 288.72C251.96 288.78 250.33 289.32 248.62 289.52C246.92 289.75 245.21 289.62 245.07 289.66C244.76 289.75 244.62 290.76 244.9 290.94V290.93Z" fill="#0F1C2E"/>
<path d="M262.65 268.52C262.39 268.73 261.67 269.41 260.55 270.3C259.43 271.18 257.91 272.29 256.05 273.15C255.12 273.58 254.12 273.93 253.06 274.11C251.93 274.3 250.73 274.45 249.5 274.74C248.28 275.03 247 275.46 245.9 276.29C245.62 276.49 245.37 276.73 245.13 276.97L244.79 277.35C244.67 277.5 244.56 277.66 244.46 277.83C244.27 278.17 244.12 278.55 244.08 279.02C244.03 279.58 244.22 280.11 244.58 280.5C244.8 280.73 245.11 280.92 245.38 281.01C245.62 281.1 245.82 281.14 245.98 281.18C246.3 281.26 246.41 281.29 246.57 281.4C246.85 281.59 247.07 281.92 247.19 282.33C247.44 283.16 247.31 284.07 247.05 284.72C246.76 285.44 246.39 286.07 246.12 286.56C245.84 287.05 245.65 287.41 245.57 287.56C244.97 288.7 245.28 289.73 245.77 289.85C246.01 289.93 246.29 289.85 246.56 289.6C246.84 289.35 247.12 288.96 247.47 288.3C247.57 288.05 248.05 287.36 248.8 285.72C249.17 284.87 249.49 283.62 249.18 282.19C249.03 281.48 248.7 280.64 247.92 279.99C247.55 279.67 247.01 279.43 246.57 279.34C246.36 279.29 246.2 279.26 246.09 279.23C245.98 279.19 246.04 279.21 246.01 279.2C246.01 279.16 245.94 279.24 246.05 278.91C246.11 278.77 246.18 278.64 246.3 278.49C246.44 278.33 246.57 278.16 246.74 278.02C247.38 277.41 248.3 276.96 249.35 276.64C250.4 276.32 251.56 276.12 252.75 275.91C253.95 275.72 255.25 275.33 256.32 274.83C258.51 273.83 260.22 272.5 261.45 271.46C262.67 270.41 263.4 269.62 263.53 269.46C264.38 268.4 263.58 267.76 262.65 268.52Z" fill="#0F1C2E"/>
<path d="M286.03 278.2C285.61 278 283.81 277.4 281.44 276.29C279.07 275.18 276.18 273.52 273.53 271.53C270.87 269.56 268.49 267.24 266.8 265.31C265.1 263.38 264.06 261.86 263.83 261.55C262.7 259.89 260.65 260.49 262.29 262.88C262.54 263.19 263.67 264.8 265.52 266.81C267.36 268.82 269.93 271.21 272.79 273.19C275.62 275.2 278.68 276.82 281.13 277.84C283.57 278.88 285.36 279.36 285.61 279.42C286.78 279.66 287.01 278.66 286.04 278.21L286.03 278.2Z" fill="#0F1C2E"/>
<path d="M245.6 144.36C246.1 144.76 248.39 146.19 250.97 148.8C251.3 149.14 251.63 149.5 251.98 149.86C252.48 150.37 253.24 150.66 253.98 150.63C254.73 150.61 255.48 150.25 255.99 149.64C256.12 149.5 256.23 149.31 256.31 149.17L256.51 148.8C256.65 148.55 256.78 148.3 256.92 148.05C258.01 146.04 259.06 143.86 260.01 141.63C261.92 137.19 263.32 132.55 264.17 128.89C265.01 125.22 265.36 122.55 265.44 121.98C265.8 119 263.87 118.09 263.4 121.98C263.33 122.52 262.99 125.18 262.18 128.81C261.36 132.44 260.01 137.04 258.17 141.42C257.26 143.62 256.24 145.76 255.19 147.74C255.06 147.98 254.94 148.21 254.81 148.45C254.73 148.59 254.62 148.71 254.49 148.8C254.23 148.98 253.89 149.05 253.59 148.99C253.44 148.96 253.31 148.9 253.19 148.81C253.12 148.77 253.08 148.72 253.01 148.66L252.75 148.39C252.4 148.03 252.05 147.69 251.71 147.36C248.96 144.78 246.64 143.48 246.32 143.29C244.8 142.53 244.37 143.47 245.59 144.35L245.6 144.36Z" fill="#0F1C2E"/>
</svg>
