<svg width="191" height="80" viewBox="0 0 191 80" fill="none" xmlns="http://www.w3.org/2000/svg">
<g clip-path="url(#clip0_44_775)">
<rect x="0.5" width="190" height="80" rx="16" fill="white"/>
<path d="M166.888 74.7755C168.759 74.7755 170.276 73.2588 170.276 71.3878C170.276 69.5168 168.759 68 166.888 68C165.017 68 163.5 69.5168 163.5 71.3878C163.5 73.2588 165.017 74.7755 166.888 74.7755Z" fill="#008CFF"/>
<path d="M48.4398 31.8788C50.6154 31.8788 52.3792 30.1151 52.3792 27.9394C52.3792 25.7637 50.6154 24 48.4398 24C46.2641 24 44.5004 25.7637 44.5004 27.9394C44.5004 30.1151 46.2641 31.8788 48.4398 31.8788Z" fill="#8C5BD8"/>
<path d="M175.775 51.0068C178.169 52.4229 179.643 55.0663 180.195 58.1818H90.0439C90.6885 56.6713 91.4252 55.1608 92.2539 53.6502C100.081 39.8666 113.618 32.9747 122.55 38.2616C125.497 39.961 127.523 42.7932 128.72 46.1919C138.204 29.9537 152.201 20.7016 160.213 25.5165C166.475 29.1984 167.396 40.3386 163.252 52.8949C167.488 49.8739 172.184 48.9298 175.775 51.0068Z" fill="#CCE4FF"/>
<g clip-path="url(#clip1_44_775)">
<path d="M93.1977 15.3655C94.2489 13.5447 96.877 13.5447 97.9282 15.3655L126.015 64.0133C127.066 65.8341 125.752 68.11 123.65 68.11H67.4761C65.3737 68.11 64.0597 65.8341 65.1109 64.0133L93.1977 15.3655Z" fill="#F22F46"/>
<path d="M97.608 56.2357C97.608 57.4601 96.6154 58.4527 95.3909 58.4527C94.1665 58.4527 93.1739 57.4601 93.1739 56.2357C93.1739 55.0113 94.1665 54.0187 95.3909 54.0187C96.6154 54.0187 97.608 55.0113 97.608 56.2357Z" fill="white"/>
<path fill-rule="evenodd" clip-rule="evenodd" d="M95.3909 51.8014C94.1665 51.8014 93.1739 50.8088 93.1739 49.5844V34.0651C93.1739 32.8407 94.1665 31.8481 95.3909 31.8481C96.6154 31.8481 97.608 32.8407 97.608 34.0651V49.5844C97.608 50.8088 96.6154 51.8014 95.3909 51.8014Z" fill="white"/>
</g>
<g clip-path="url(#clip2_44_775)">
<path d="M93.1977 15.3655C94.2489 13.5447 96.877 13.5447 97.9282 15.3655L126.015 64.0133C127.066 65.8341 125.752 68.11 123.65 68.11H67.4761C65.3737 68.11 64.0597 65.8341 65.1109 64.0133L93.1977 15.3655Z" fill="#F22F46"/>
<path d="M97.608 56.2357C97.608 57.4601 96.6154 58.4527 95.3909 58.4527C94.1665 58.4527 93.1739 57.4601 93.1739 56.2357C93.1739 55.0113 94.1665 54.0187 95.3909 54.0187C96.6154 54.0187 97.608 55.0113 97.608 56.2357Z" fill="white"/>
<path fill-rule="evenodd" clip-rule="evenodd" d="M95.3909 51.8014C94.1665 51.8014 93.1739 50.8088 93.1739 49.5844V34.0651C93.1739 32.8407 94.1665 31.8481 95.3909 31.8481C96.6154 31.8481 97.608 32.8407 97.608 34.0651V49.5844C97.608 50.8088 96.6154 51.8014 95.3909 51.8014Z" fill="white"/>
</g>
<path d="M82.2738 74.7419C81.7227 73.4076 81.0953 72.1084 80.3951 70.8512C73.8804 59.1709 62.5111 53.3408 55.001 57.8294C52.5637 59.286 50.8372 61.6542 49.8331 64.5832C41.8286 50.84 30.1314 43.0252 23.3755 47.063C18.1048 50.2131 17.3684 59.6678 20.8565 70.3421C17.2806 67.622 13.2783 66.8041 10.2544 68.6115C8.21954 69.8276 6.95945 72.0368 6.49965 74.7419H82.2738Z" fill="#EBF4FF"/>
<path d="M131.929 19.8573C132.718 19.8573 133.358 19.2177 133.358 18.4286C133.358 17.6396 132.718 17 131.929 17C131.14 17 130.5 17.6396 130.5 18.4286C130.5 19.2177 131.14 19.8573 131.929 19.8573Z" fill="#F22F46"/>
</g>
<defs>
<clipPath id="clip0_44_775">
<rect x="0.5" width="190" height="80" rx="16" fill="white"/>
</clipPath>
<clipPath id="clip1_44_775">
<rect width="62.1327" height="53.9394" fill="white" transform="translate(64.5004 14)"/>
</clipPath>
<clipPath id="clip2_44_775">
<rect width="62.1327" height="53.9394" fill="white" transform="translate(64.5004 14)"/>
</clipPath>
</defs>
</svg>
