<svg width="185" height="252" viewBox="0 0 185 252" fill="none" xmlns="http://www.w3.org/2000/svg">
<g clip-path="url(#clip0_4_3854)">
<path d="M45.2899 70.91C64.8242 70.91 80.6599 55.0743 80.6599 35.54C80.6599 16.0057 64.8242 0.169998 45.2899 0.169998C25.7556 0.169998 9.91992 16.0057 9.91992 35.54C9.91992 55.0743 25.7556 70.91 45.2899 70.91Z" fill="#EE2F46"/>
<path d="M68.1899 48.26C66.1099 46.8 64.3099 44.96 62.8999 42.86C62.3499 42.04 61.8599 41.18 61.1399 40.51C59.9699 39.41 58.3499 38.95 56.7799 38.64C55.7799 38.44 54.7699 38.3 53.7599 38.15C53.0099 38.04 52.2599 37.93 51.5099 38.03C49.1199 38.35 47.4499 40.78 47.2199 43.19C47.0199 45.32 47.7199 47.51 49.1299 49.12C49.6599 49.72 50.2799 50.25 50.9999 50.61C51.7599 51 52.6099 51.19 53.4499 51.31C56.6599 51.77 60.0099 51.25 63.0899 52.25C63.7399 52.46 64.4099 52.75 65.0899 52.66C65.5399 52.6 65.9599 52.38 66.3399 52.11C67.4899 51.27 68.1799 48.26 68.1799 48.26H68.1899Z" fill="white"/>
<path d="M53.39 39.7C51.71 36.41 49.7899 33.25 47.7999 30.14C46.8799 28.71 45.9699 27.27 45.0199 25.85C44.3299 24.81 43.4399 23.72 42.0499 23.89C40.2999 24.11 38.7299 25.19 37.1499 25.92C35.3499 26.76 33.54 27.61 31.89 28.73C30.53 29.66 31.17 31.32 31.79 32.49C33.66 36 35.6899 39.44 37.7499 42.84C40.0099 46.58 42.0899 50.82 44.8599 54.2C46.1499 55.78 47.0299 55.59 48.7799 54.98C50.1399 54.5 51.44 53.92 52.7 53.22C55.19 51.83 57.15 50.05 59.48 48.42" fill="white"/>
<path d="M57.5899 49.3C57.1099 49.62 55.9399 50.56 54.1799 51.76C53.2899 52.35 52.2399 52.97 50.9899 53.55C50.3699 53.84 49.7099 54.11 48.9999 54.37C48.2999 54.61 47.52 54.92 46.89 54.91C46.28 54.91 45.7399 54.44 45.2199 53.77C44.6799 53.1 44.1599 52.38 43.6499 51.63C42.6299 50.12 41.6599 48.46 40.6799 46.74C38.6999 43.29 36.6199 39.65 34.5299 36.01C34.0099 35.1 33.4899 34.19 32.9699 33.29C32.4499 32.38 31.9 31.49 31.76 30.65C31.69 30.23 31.73 29.87 31.91 29.61C31.99 29.47 32.1299 29.37 32.2799 29.25L32.8999 28.85C33.7399 28.33 34.61 27.87 35.48 27.44C36.38 27.01 37.2599 26.59 38.1199 26.18C38.9899 25.74 39.7899 25.29 40.5899 24.97C41.3699 24.67 42.2499 24.42 42.7699 24.6C43.3499 24.77 43.8699 25.34 44.2999 25.97C47.8699 31.38 50.2699 35.39 50.7399 36.25C52.0199 38.47 53.04 39.76 53.39 39.71C53.73 39.66 53.43 38.22 51.67 35.17C51.42 34.75 50.6999 33.5 49.5499 31.68C48.9799 30.77 48.31 29.72 47.54 28.55C47.16 27.97 46.7599 27.35 46.3399 26.71C45.9099 26.07 45.53 25.4 44.95 24.68C44.66 24.33 44.3199 23.98 43.8599 23.7C43.4199 23.41 42.8399 23.24 42.2699 23.25C41.1999 23.32 40.31 23.67 39.42 24.08C38.55 24.49 37.72 24.98 36.88 25.37C36 25.78 35.0999 26.2 34.1899 26.68C33.2799 27.15 32.3899 27.66 31.4999 28.28C31.2299 28.47 30.9899 28.72 30.7999 29.02C30.6199 29.33 30.52 29.67 30.49 30.01C30.44 30.68 30.5999 31.27 30.7999 31.81C31.2299 32.89 31.8199 33.71 32.3299 34.65L33.92 37.4C36.04 41.06 38.16 44.7 40.16 48.13C41.16 49.85 42.1699 51.51 43.2699 53.01C43.8399 53.76 44.3199 54.47 45.0199 55.16C45.3699 55.49 45.82 55.79 46.35 55.91C46.88 56.02 47.3799 55.95 47.7999 55.85C51.0199 54.91 53.4399 53.47 55.1099 52.28C56.7699 51.08 57.75 50.27 58.01 50.07C59.13 49.16 59.5899 48.62 59.4899 48.46C59.3899 48.3 58.6899 48.54 57.5799 49.32L57.5899 49.3Z" fill="#121C2D"/>
<path d="M52.4799 38.55C52.7699 38.59 53.9499 38.46 55.5499 38.76C56.3299 38.9 57.2899 39.13 58.2299 39.36C59.1699 39.6 60.0899 39.96 60.7999 40.58C61.1599 40.89 61.4799 41.25 61.7499 41.65C62.0399 42.06 62.3099 42.5 62.5799 42.92C63.1099 43.77 63.6299 44.58 64.1399 45.27C65.1399 46.67 66.1699 47.5 66.3899 47.65C66.9799 48.08 67.5499 47.98 67.7199 47.7C67.8999 47.4 67.7499 46.98 67.1199 46.5C66.9399 46.37 66.0699 45.68 65.0999 44.36C64.6099 43.71 64.0999 42.92 63.5299 42.06C62.9799 41.23 62.3499 40.21 61.3699 39.5C60.4099 38.77 59.2599 38.43 58.2699 38.21C57.2699 38 56.3599 37.8 55.4999 37.69C53.8099 37.47 52.6199 37.67 52.4599 37.67C51.6999 37.79 51.8299 38.47 52.4899 38.53L52.4799 38.55Z" fill="#121C2D"/>
<path d="M60.8899 49.62C60.7799 49.54 60.4799 49.4 60.0799 49.11C59.6799 48.8 59.1999 48.33 58.6499 47.72C58.0999 47.12 57.4899 46.36 56.6099 45.68C56.1599 45.35 55.6399 45.06 55.0299 44.9C54.4199 44.76 53.7599 44.79 53.2399 44.88C52.7199 44.96 52.2399 45.01 51.9099 44.92C51.6599 44.87 51.3599 44.56 51.3099 44.34C51.2899 44.23 51.3099 44.22 51.3099 44.2C51.3099 44.18 51.4099 44.12 51.6199 44.05C52.0499 43.89 52.4699 43.75 52.8499 43.61C54.3999 43.05 55.4999 42.65 55.7399 42.57C56.9599 42.12 56.8099 40.74 55.1599 41.34C54.9299 41.43 53.8099 41.85 52.2499 42.44C51.8499 42.59 51.4199 42.76 50.9699 42.93C50.6999 43.04 50.2899 43.3 50.1199 43.75C49.9499 44.2 50.0399 44.65 50.1999 44.97C50.5099 45.61 51.1399 46.1 51.8899 46.17C52.5499 46.24 53.1199 46.1 53.6199 46.03C55.5199 45.6 56.8899 47.43 58.0299 48.58C58.5999 49.18 59.1699 49.66 59.6299 49.96C60.0899 50.27 60.4499 50.37 60.5299 50.41C61.3599 50.59 61.3899 49.88 60.8699 49.62H60.8899Z" fill="#121C2D"/>
<path d="M56.0898 51.24C56.3298 51.4 58.2798 51.85 60.1798 52.26C61.1298 52.47 62.0498 52.7 62.7398 52.93C63.4298 53.16 63.8398 53.38 63.9098 53.43C64.2398 53.65 65.3998 52.79 64.5298 52.23C64.4098 52.15 63.8398 51.88 63.0598 51.66C62.2798 51.43 61.2898 51.23 60.3098 51.07C58.3798 50.75 56.4698 50.44 56.3098 50.41C55.9698 50.41 55.7998 51.08 56.0898 51.24Z" fill="#121C2D"/>
<path d="M116.53 163.84C116.53 163.84 116.59 163.77 116.61 163.74C117.96 163.4 119.27 162.91 120.56 162.37C120.6 162.35 120.64 162.34 120.68 162.32C121.67 161.9 122.66 161.45 123.65 161.02C123.97 160.97 124.3 160.93 124.63 160.9C125.11 160.98 125.64 160.97 126.22 160.85C126.46 160.8 126.71 160.76 126.95 160.71C128.18 160.64 129.42 160.59 130.64 160.48C136.02 160.01 141.44 159.54 146.74 158.46C150.9 157.61 155.66 156.36 158.69 153.18C159.35 152.48 159.85 151.73 160.21 150.95C161.14 149.84 161.99 148.62 162.72 147.24C166.08 140.89 169.24 129.03 161.06 124.91C158.94 123.84 157.32 125.68 155.52 126.53C149.21 129.52 140.22 125.01 134.83 129.86C133.27 131.26 122.26 129.31 121.97 130.89C123.42 122.96 125.05 114.82 126.84 107.78C127.87 103.72 129.15 99.38 132.47 96.82C135.23 94.68 138.89 94.2 142.37 93.85C153.69 92.71 165.06 92.13 176.44 92.14C177.85 92.14 179.35 92.17 180.54 92.93C182.32 94.06 182.83 96.4 183.03 98.49C183.79 106.62 182.15 114.76 180.52 122.76C179.09 129.77 177.67 136.78 176.24 143.8C174.51 152.32 171.53 162.29 163.24 164.9C161.32 165.5 159.28 165.63 157.27 165.73C143.94 166.41 130.58 166.44 117.25 165.82C116.64 165.79 116.04 165.76 115.42 165.72C115.85 165.12 116.19 164.51 116.53 163.86V163.84Z" fill="#FBF5F2"/>
<path d="M124.03 123.18C124.19 122.43 124.43 121.08 124.75 119.21C125.07 117.34 125.46 114.96 126.07 112.17C126.7 109.4 127.51 106.18 129.13 102.92C129.56 102.12 129.96 101.28 130.51 100.51C130.78 100.12 131.01 99.7 131.32 99.32C131.62 98.94 131.93 98.56 132.24 98.17C132.53 97.77 132.91 97.44 133.26 97.07L133.79 96.53L133.99 96.33C133.99 96.33 134.02 96.33 134.04 96.32L134.22 96.28C135.24 96.04 136.27 95.75 137.34 95.54C145.83 93.65 155.75 92.86 166.26 92.71C168.89 92.66 171.56 92.65 174.25 92.65C175.6 92.65 176.95 92.65 178.31 92.65C178.66 92.65 178.93 92.7 179.24 92.71C179.54 92.73 179.81 92.86 180.11 92.92C180.64 93.16 181.15 93.47 181.54 93.94C182.34 94.85 182.79 96.1 183.04 97.39C183.29 98.69 183.36 100.04 183.36 101.4C183.33 104.12 183.04 106.89 182.69 109.62C182.33 112.36 181.87 115.09 181.38 117.81C180.88 120.52 180.43 123.26 179.84 125.92C178.72 131.27 177.61 136.54 176.53 141.65C175.33 146.73 174.14 151.69 171.95 155.91C170.85 158 169.5 159.9 167.85 161.36C166.19 162.83 164.27 163.81 162.27 164.41C158.24 165.62 154.22 165.62 150.62 165.59C147.02 165.52 143.72 165.42 140.92 165.56C135.35 165.75 131.61 165.75 130.3 165.74C123.49 165.7 119.2 165.53 118.87 165.85C118.54 166.1 122.24 167.07 131.54 167.09C132.84 167.09 136.65 167.06 142.31 166.85C145.11 166.75 148.39 166.91 152.1 166.92C155.79 166.89 160.03 166.75 164.28 165.07C166.39 164.21 168.4 162.83 170.01 161.02C171.63 159.21 172.9 157.06 173.92 154.77C175.92 150.15 177.05 145.07 178.18 139.89C179.26 134.69 180.38 129.34 181.51 123.91C182.49 118.48 183.56 112.96 184.16 107.36C184.43 104.56 184.69 101.75 184.43 98.89C184.29 97.47 184.02 96.03 183.39 94.67C183.09 93.99 182.63 93.36 182.08 92.81C181.77 92.58 181.49 92.28 181.13 92.13L180.61 91.86C180.43 91.8 180.24 91.75 180.05 91.69C179.68 91.56 179.3 91.54 178.92 91.51C178.53 91.47 178.2 91.48 177.86 91.48H175.81C174.45 91.48 173.09 91.5 171.74 91.5C169.04 91.51 166.37 91.56 163.74 91.63C153.23 91.89 143.33 92.9 134.99 95.01L134.21 95.2L133.82 95.3L133.51 95.38C133.41 95.44 133.35 95.53 133.28 95.6C132.9 95.98 132.53 96.37 132.16 96.74C131.78 97.1 131.47 97.52 131.15 97.92C130.84 98.33 130.49 98.71 130.22 99.13C129.68 99.98 129.11 100.78 128.7 101.64C128.48 102.06 128.25 102.47 128.05 102.89C127.87 103.32 127.68 103.74 127.51 104.15C126.12 107.48 125.42 110.61 124.9 113.23C123.92 118.5 123.45 121.87 123.27 122.71C122.62 126.47 122.25 128.28 122.46 128.35C122.62 128.41 123.36 126.67 124.07 123.15L124.03 123.18Z" fill="#121C2D"/>
<path d="M171.57 249.56C171.45 248.26 170.85 242.87 169.74 235.48C168.63 228.09 166.94 218.72 164.92 209.44C162.91 200.16 160.52 190.98 158.49 183.88C156.46 176.78 154.83 171.75 154.49 170.68C152.67 165.12 150.91 164.11 153.37 171.6C153.69 172.65 155.37 177.75 157.43 184.93C159.5 192.11 161.94 201.38 163.97 210.7C166.03 220.01 167.74 229.36 168.85 236.56C169.99 243.76 170.59 248.82 170.7 249.54C171.18 252.77 171.85 252.6 171.57 249.56Z" fill="#121C2D"/>
<path d="M93.8399 250.32C94.3099 248.92 98.6499 229.46 98.9099 228.23C99.2599 226.63 98.0399 225.9 97.5599 228.07C97.2999 229.28 93.0999 249.3 92.9999 250.12C92.8899 251.04 93.5599 251.14 93.8299 250.32H93.8399Z" fill="#121C2D"/>
<path d="M147.92 215.2C148.46 215.27 152.36 215.25 156.25 215.35C160.13 215.44 164 215.61 164.46 215.63C165.65 215.67 166.02 214.34 164.4 214.28C163.95 214.27 159.98 214.15 156.05 214.16C152.12 214.16 148.23 214.3 147.93 214.35C147.26 214.45 147.29 215.13 147.93 215.21L147.92 215.2Z" fill="#121C2D"/>
<path d="M156.98 120.94C157.09 120.8 157.49 119.71 157.95 118.6C158.41 117.49 158.76 116.28 158.79 116.13C158.88 115.74 157.56 115.41 157.47 115.86C157.45 115.99 157.19 117.11 156.81 118.26C156.44 119.4 156.13 120.61 156.16 120.71C156.19 120.94 156.85 121.1 156.99 120.94H156.98Z" fill="#121C2D"/>
<path d="M133.17 197.99C132.21 196.7 127.93 191.45 123.34 183.39C122.2 181.38 121.04 179.19 119.91 176.85C118.8 174.51 117.56 172.07 117.29 169.4C117.16 168.09 117.29 166.73 117.97 165.64C118.61 164.52 119.77 163.81 121.08 163.37C122.39 162.93 123.85 162.65 125.28 162.35C126.72 162.06 128.16 161.8 129.62 161.58C132.52 161.14 135.45 160.84 138.34 160.68C141.22 160.52 144.11 160.56 146.94 160.25C149.75 159.95 152.55 159.23 154.86 157.79C157.17 156.37 158.92 154.44 160.28 152.52C162.97 148.64 164.36 144.81 165.18 141.91C165.99 138.99 166.19 136.95 166.29 136.25C166.7 132.55 166.11 130.21 165.8 130.09C165.62 130.02 165.49 130.49 165.38 131.57C165.27 132.65 165.18 134.35 164.86 136.74C164.77 137.41 164.52 139.38 163.7 142.23C163.28 143.65 162.7 145.28 161.89 147.03C161.08 148.78 160.07 150.66 158.69 152.47C157.32 154.27 155.57 156 153.35 157.17C151.13 158.33 148.47 158.88 145.7 159.1C142.93 159.33 140.01 159.3 137.05 159.53C134.09 159.74 131.11 160.1 128.16 160.6C126.68 160.85 125.21 161.14 123.76 161.47C122.32 161.8 120.82 162.1 119.41 162.83C118 163.54 116.82 164.87 116.41 166.4C115.96 167.93 116.11 169.47 116.41 170.88C116.73 172.3 117.23 173.62 117.79 174.87C118.36 176.11 118.94 177.3 119.52 178.46C120.69 180.77 121.87 182.93 123.04 184.9C127.7 192.79 131.86 197.68 132.41 198.39C135.08 201.51 135.51 200.95 133.17 197.97V197.99Z" fill="#121C2D"/>
<path d="M122.66 136.68C121.73 136.58 119.34 136.24 115.8 136.16C114.03 136.13 111.97 136.19 109.7 136.53C107.43 136.88 104.95 137.55 102.5 138.76C100.06 139.97 97.6199 141.77 95.8299 144.32C94.9499 145.6 94.21 147.01 93.72 148.55C93.22 150.08 92.9299 151.7 92.7999 153.34C92.5399 156.63 92.9499 159.99 93.5899 163.3C94.2499 166.62 95.1199 169.9 96.0199 173.19C97.8699 179.74 100.17 186.19 103.08 191.95C105.96 197.72 109.43 202.79 113.07 206.7C113.94 207.71 114.9 208.57 115.78 209.45C116.66 210.3 117.61 211.13 118.75 211.65C119.32 211.91 119.95 212.06 120.57 212.08C121.19 212.08 121.79 211.96 122.31 211.77C123.35 211.38 124.15 210.8 124.85 210.29C127.62 208.25 129.36 206.73 129.97 206.2C133.15 203.43 134.72 201.24 134.6 200.89C134.45 200.5 132.75 202.01 128.51 205.67C127.92 206.16 126.16 207.7 123.4 209.67C122.72 210.13 121.96 210.57 121.13 210.71C120.32 210.86 119.43 210.62 118.57 210.06C117.7 209.52 116.87 208.69 115.99 207.83C115.56 207.4 115.09 206.98 114.66 206.51C114.23 206.04 113.79 205.56 113.35 205.07C109.82 201.13 106.44 196.05 103.65 190.26C100.83 184.48 98.58 178.02 96.79 171.46C95.9 168.18 95.0299 164.88 94.4599 161.6C93.8999 158.33 93.6299 155.05 94.0799 151.95C94.4999 148.86 95.7099 145.99 97.5799 143.83C99.4499 141.66 101.82 140.16 104.15 139.15C108.88 137.13 113.39 137.08 116.59 137.13C119.82 137.23 121.89 137.49 122.41 137.52C127.06 137.97 127.01 137.28 122.67 136.68H122.66Z" fill="#121C2D"/>
<path d="M100.6 195.78C99.84 196.07 97.89 196.81 95.04 197.9C94.33 198.17 93.56 198.47 92.74 198.79C91.93 199.1 91.07 199.47 90.35 199.28C89.62 199.11 89.05 198.31 88.56 197.39C88.05 196.44 87.52 195.46 86.97 194.44C84.78 190.35 82.32 185.68 80.21 180.54C78.1 175.41 76.38 169.73 75.88 163.93C75.36 158.13 76.09 152.22 78.13 147.16C80.13 142.06 83.64 138.09 87.26 135.45C90.89 132.78 94.49 131.2 97.2 130.11C99.93 129.04 101.84 128.5 102.5 128.28C105.95 127.23 108.1 126.39 108.16 126.01C108.24 125.67 106.2 125.73 101.47 127.19C100.81 127.4 98.87 128 96.04 129.14C93.24 130.3 89.5 132.01 85.76 134.97C83.9 136.45 82.06 138.25 80.47 140.4C78.87 142.55 77.54 145.05 76.56 147.75C74.58 153.17 74.13 159.36 74.82 165.33C75.53 171.33 77.47 177.06 79.69 182.21C81.93 187.36 84.44 191.98 86.61 195.97C87.18 196.97 87.62 197.92 88.27 198.86C88.6 199.32 89.01 199.76 89.56 200.04C90.1 200.33 90.75 200.38 91.27 200.29C92.34 200.09 93.1 199.67 93.89 199.39C94.66 199.08 95.38 198.8 96.04 198.54C98.67 197.49 100.36 196.82 100.78 196.65C104.54 195.09 104.18 194.49 100.61 195.79L100.6 195.78Z" fill="#121C2D"/>
<path d="M121.37 216.15C120.78 217.08 118.39 220.97 115.48 226.54C114.77 227.94 113.94 229.39 113.3 231.12C113 231.98 112.76 232.92 112.74 233.92C112.74 234.41 112.7 234.92 113 235.55C113.15 235.86 113.45 236.15 113.8 236.28C114.15 236.41 114.49 236.41 114.78 236.38C115.37 236.3 115.83 236.08 116.27 235.91C116.72 235.73 117.17 235.55 117.62 235.37C118.51 234.98 119.43 234.6 120.32 234.16C122.12 233.33 123.89 232.36 125.63 231.35C132.59 227.29 138.62 221.83 142.62 217.03C142.87 216.73 143.12 216.43 143.37 216.14C143.62 215.82 143.91 215.43 144.01 214.88C144.11 214.32 143.93 213.8 143.73 213.44C143.53 213.07 143.3 212.79 143.11 212.53C142.33 211.48 141.6 210.56 140.97 209.77C139.71 208.2 138.81 207.18 138.5 206.82C136.87 204.96 135.54 204.07 135.23 204.23C134.91 204.4 135.61 205.56 137.77 208.05C138.07 208.4 138.96 209.42 140.22 210.99C140.84 211.77 141.59 212.72 142.35 213.74C142.52 213.98 142.65 214.22 142.69 214.41C142.73 214.6 142.71 214.73 142.58 214.97C142.45 215.19 142.21 215.47 141.97 215.76C141.73 216.05 141.48 216.34 141.23 216.64C137.23 221.4 131.18 226.78 124.27 230.75C122.56 231.76 120.78 232.65 119.01 233.49C118.12 233.89 117.24 234.3 116.34 234.65C115.91 234.82 115.43 235.04 115.04 235.17C114.64 235.3 114.27 235.32 114.12 235.21C113.96 235.13 113.85 234.82 113.84 234.4C113.81 233.98 113.84 233.55 113.9 233.14C114.02 232.3 114.29 231.49 114.61 230.71C115.27 229.16 116.07 227.69 116.75 226.33C119.56 220.89 121.76 217.23 122.05 216.68C123.39 214.29 122.77 214 121.36 216.15H121.37Z" fill="#121C2D"/>
<path d="M114.82 237.53C115.06 237.83 115.92 238.46 117.26 238.64C117.92 238.74 118.7 238.77 119.53 238.66C120.34 238.55 121.24 238.47 122.19 238.25C126.01 237.55 130.63 235.54 134.62 232.7C138.65 229.88 142.1 226.38 144.51 223.45C145.72 222.03 146.79 220.65 147.2 219.33C147.65 218.01 147.41 216.99 147.34 216.68C147.14 215.82 146.62 215.21 146.17 214.96C145.71 214.7 145.37 214.75 145.27 214.88C145.16 215.02 145.27 215.24 145.45 215.57C145.63 215.9 145.92 216.38 146.06 217.21C146.09 217.45 146.23 218.12 145.83 219.15C145.47 220.18 144.49 221.44 143.26 222.89C140.86 225.79 137.45 229.29 133.49 232.02C129.57 234.79 125.09 236.66 121.5 237.33C120.61 237.52 119.76 237.61 119.02 237.72C118.29 237.79 117.64 237.75 117.11 237.66C116.04 237.48 115.55 237.04 115.44 236.95C114.92 236.52 114.72 236.17 114.51 236.23C114.35 236.24 114.17 236.82 114.81 237.53H114.82Z" fill="#121C2D"/>
<path d="M134.52 210.99C134.39 210.92 134.04 210.74 133.48 210.68C132.93 210.62 132.16 210.68 131.41 211.14C130.64 211.58 130.03 212.51 129.93 213.55C129.81 214.57 130.19 215.8 131.16 216.5C132.1 217.18 133.31 217.3 134.33 216.94C134.84 216.76 135.31 216.43 135.63 216.01C135.96 215.58 136.13 215.08 136.17 214.62C136.26 213.7 135.95 212.96 135.63 212.47C135.31 211.98 134.95 211.74 134.84 211.65C134.53 211.43 134.18 211.4 133.96 211.47C133.73 211.55 133.61 211.71 133.58 211.87C133.54 212.23 133.75 212.51 134.14 212.8C134.2 212.84 134.37 212.98 134.57 213.27C134.76 213.56 134.94 214.05 134.86 214.58C134.8 215.09 134.42 215.59 133.76 215.8C133.12 216 132.27 215.88 131.72 215.43C131.18 215 130.94 214.19 131.05 213.49C131.16 212.77 131.57 212.21 132.08 211.94C132.59 211.65 133.12 211.6 133.49 211.64C133.86 211.67 134.08 211.77 134.14 211.78C134.61 211.94 135.1 211.43 134.5 211L134.52 210.99Z" fill="#121C2D"/>
<path d="M112.78 208.45C112.12 209.02 109.5 211.58 105.5 214.63C101.52 217.69 96.0999 221.17 90.3299 223.86C89.9699 224.02 89.6199 224.17 89.2599 224.3C88.8999 224.44 88.5199 224.56 88.2399 224.6C87.6399 224.67 87.0099 224.46 86.5999 224.02C86.1599 223.59 85.9699 222.97 86.0499 222.39C86.1299 221.87 86.5699 221.15 86.8999 220.5C88.3199 217.87 89.9099 215.5 91.1299 213.28C92.3699 211.07 93.1999 209.01 93.6499 207.41C94.0999 205.8 94.1999 204.66 94.2399 204.27C94.4099 202.18 93.7499 200.92 93.4299 200.92C93.0299 200.92 93.0999 201.98 92.8599 204.5C92.8199 204.85 92.7099 205.9 92.2499 207.42C91.8099 208.94 90.9699 210.91 89.7499 213.09C88.5399 215.28 86.9299 217.7 85.5099 220.48L85.2499 221.01C85.1699 221.18 85.0799 221.37 84.9899 221.6C84.8299 222.05 84.7499 222.54 84.8199 223.03C84.9299 224.01 85.5199 224.9 86.3599 225.4C87.1799 225.94 88.3499 225.96 89.1799 225.63C89.9799 225.36 90.7499 225.02 91.4799 224.66C97.3399 221.8 102.76 218.19 106.64 215.08C110.54 211.99 112.97 209.49 113.32 209.15C114.85 207.52 114.3 207.1 112.78 208.48V208.45Z" fill="#121C2D"/>
<path d="M87.14 227.65C87.2 227.81 87.33 228.1 87.62 228.39C87.89 228.68 88.4 229.01 89 229.1C89.6 229.21 90.28 229.13 90.95 228.97C91.62 228.81 92.31 228.57 93.08 228.34C96.1 227.35 99.78 225.57 103.11 223.3C106.47 221.08 109.53 218.47 111.85 216.41C114.17 214.34 115.77 212.79 116.11 212.47C117.89 210.77 117.41 209.36 115.02 211.64C114.68 211.95 113.07 213.53 110.75 215.63C108.43 217.72 105.38 220.33 102.08 222.54C98.8 224.77 95.24 226.53 92.37 227.46C90.93 227.96 89.71 228.33 88.96 228.11C88.23 227.92 87.99 227.4 87.94 227.33C87.7 226.91 87.68 226.61 87.48 226.52C87.4 226.49 87.26 226.53 87.16 226.72C87.05 226.9 87 227.24 87.14 227.63V227.65Z" fill="#121C2D"/>
<path d="M108.29 206.28C108.3 206.11 108.28 205.66 108.02 205.07C107.76 204.5 107.22 203.75 106.25 203.38C105.29 203.02 104.04 203.14 103.06 203.9C102.58 204.28 102.18 204.85 102.02 205.48C101.85 206.11 101.87 206.77 102.07 207.39C102.26 208 102.64 208.59 103.18 208.99C103.72 209.4 104.39 209.58 105.01 209.57C106.25 209.57 107.38 208.89 107.89 207.92C108.39 206.93 108.24 205.97 108.01 205.36C107.77 204.74 107.45 204.39 107.35 204.27C106.74 203.63 106.05 203.81 105.95 204.12C105.82 204.46 106.01 204.78 106.41 205.25C106.47 205.32 106.65 205.53 106.79 205.92C106.92 206.3 106.98 206.9 106.67 207.4C106.39 207.91 105.63 208.34 104.84 208.3C104.05 208.28 103.36 207.69 103.15 206.83C102.93 205.98 103.23 205.09 103.91 204.64C104.58 204.17 105.46 204.13 106.05 204.4C106.66 204.66 107.03 205.18 107.21 205.56C107.39 205.95 107.42 206.23 107.43 206.3C107.5 206.6 107.65 206.78 107.85 206.81C108.03 206.84 108.27 206.67 108.29 206.26V206.28Z" fill="#121C2D"/>
<path d="M168.15 113.6C168 112.6 167.79 111.57 168.04 110.6C168.26 109.75 168.82 109.03 169.43 108.39C172.12 105.61 176.06 104.02 178.06 100.7C179.92 97.6 179.67 93.71 179.12 90.14C178.59 86.7 177.85 83.3 177.05 79.91C175.47 73.25 173.59 66.52 169.83 60.81C166.07 55.09 160.11 50.46 153.29 49.86C156.12 45.96 154.24 39.58 149.75 37.84C148.26 37.26 146.43 37.2 145.18 38.2C144.11 39.06 143.69 40.47 143.1 41.7C141.34 45.36 137.43 47.89 133.37 48.01C129.31 48.13 125.27 45.82 123.3 42.27C120 44.57 117.94 48.56 117.99 52.59C116.83 53.07 95.2 54.8 90.76 54.2C85.39 53.48 70.69 44.85 69.64 44.5C66.8 43.56 63.46 55.23 63.83 55.58C66.11 57.75 79.34 75.03 83.3 76.43C90.15 78.87 104.87 78.72 107.95 78.1C107.68 87.18 103.24 111.51 102.97 120.59C102.95 121.34 102.93 122.11 103.24 122.8C103.52 123.42 104.05 123.9 104.57 124.33C109.01 128.07 114.37 130.7 120.04 131.91C122.26 132.39 124.57 132.65 126.79 132.17C128.54 131.79 130.17 130.98 131.87 130.42C137.37 128.62 143.32 129.58 149.09 129.99C154.14 130.36 160.15 130.29 164.46 127.21C168.36 124.43 168.79 117.97 168.15 113.59V113.6Z" fill="#51A8E2"/>
<path d="M142.91 54.63C143.14 54.6 144.63 53.94 146.09 53.26C146.82 52.92 147.54 52.58 148.11 52.31C148.65 52.06 148.97 52.01 149.04 52C149.2 51.97 149.31 51.64 149.35 51.3C149.39 50.97 149.21 50.6 148.77 50.67C148.65 50.68 148.08 50.83 147.49 51.15C146.93 51.45 146.2 51.84 145.48 52.22C144.05 52.99 142.63 53.76 142.54 53.85C142.33 54.05 142.64 54.66 142.91 54.62V54.63Z" fill="#121C2D"/>
<path d="M137.7 54.19C137.63 54.12 137.3 53.97 136.85 54.07C136.63 54.12 136.39 54.23 136.18 54.45C135.96 54.67 135.81 55.04 135.84 55.39C135.88 56.07 136.4 56.75 137.23 56.81C137.62 56.82 137.97 56.69 138.24 56.47C138.51 56.26 138.73 55.88 138.75 55.54C138.8 55 138.48 54.57 138.23 54.38C137.98 54.18 137.73 54.12 137.65 54.11C137.25 54.05 137.11 54.49 137.22 54.8C137.32 55.11 137.43 55.43 137.39 55.44C137.37 55.41 137.42 55.46 137.42 55.45C137.42 55.45 137.43 55.45 137.42 55.47C137.41 55.5 137.35 55.55 137.29 55.57C137.23 55.59 137.2 55.6 137.13 55.57C137.06 55.54 136.98 55.45 136.95 55.37C136.89 55.22 136.94 55.13 137.1 55.04C137.24 54.98 137.32 55 137.34 54.99C137.4 54.93 137.96 54.46 137.69 54.2L137.7 54.19Z" fill="#121C2D"/>
<path d="M137.28 65.85C137.37 65.54 137.5 63.24 137.61 60.96C137.66 59.82 137.74 58.66 137.74 57.8C137.75 56.94 137.86 56.39 137.88 56.27C138.01 55.72 136.79 55.01 136.54 56.08C136.51 56.22 136.41 56.94 136.43 57.87C136.46 58.78 136.42 59.92 136.42 61.07C136.4 63.36 136.39 65.63 136.42 65.8C136.49 66.2 137.17 66.22 137.28 65.85Z" fill="#121C2D"/>
<path d="M125.38 53.39C125.25 53.43 124.57 53.72 124.37 54.67C124.09 55.66 125.35 57.1 126.76 56.35C127.38 55.96 127.58 55.28 127.56 54.75C127.56 54.19 127.32 53.68 127 53.33C126.68 52.96 126.16 52.76 125.77 52.79C125.39 52.81 125.16 52.95 125.08 53C124.87 53.12 124.77 53.37 124.82 53.54C124.86 53.72 125 53.84 125.15 53.9C125.3 53.97 125.47 54 125.59 54.05C125.72 54.09 125.76 54.17 125.78 54.16C125.78 54.16 125.81 54.14 125.85 54.14C125.87 54.14 125.95 54.14 126.08 54.26C126.2 54.39 126.31 54.6 126.31 54.84C126.31 55.09 126.22 55.3 126.1 55.36C126.01 55.43 125.76 55.41 125.6 55.26C125.44 55.12 125.39 54.97 125.42 54.77C125.48 54.37 125.8 54.17 125.81 54.15C125.92 54.01 125.79 53.31 125.4 53.39H125.38Z" fill="#121C2D"/>
<path d="M126.72 65.38C126.85 64.75 126.55 56.11 126.53 55.57C126.5 54.86 125.14 54.79 125.19 55.74C125.21 56.27 125.78 65.03 125.87 65.38C125.97 65.77 126.65 65.75 126.73 65.38H126.72Z" fill="#121C2D"/>
<path d="M119.28 52.44C119.29 52.63 119.9 53.73 120.69 54.7C121.46 55.68 122.41 56.51 122.52 56.61C122.82 56.86 123.73 55.86 123.36 55.56C123.26 55.48 122.34 54.75 121.55 53.88C120.75 53.03 120.09 52.06 120.02 52.01C119.84 51.88 119.26 52.23 119.28 52.45V52.44Z" fill="#121C2D"/>
<path d="M128.77 58.37C128.79 58.46 129.01 58.78 129.44 59.04C129.87 59.3 130.48 59.48 131.1 59.47C132.34 59.43 133.31 58.89 133.42 58.86C133.72 58.72 133.19 57.47 132.82 57.65C132.72 57.69 131.84 58.21 131 58.28C130.59 58.32 130.17 58.24 129.9 58.11C129.62 57.99 129.48 57.83 129.44 57.83C129.3 57.79 128.71 58.14 128.77 58.37Z" fill="#121C2D"/>
<path d="M143.82 35.17C143.91 35.27 144.18 35.52 144.66 35.74C145.13 35.96 145.82 36.14 146.62 36.03C147.41 35.93 148.28 35.56 148.96 34.87C149.65 34.18 150.09 33.21 150.18 32.21C150.28 31.21 150.05 30.17 149.52 29.35C148.99 28.51 148.2 27.98 147.48 27.68C146 27.08 144.8 27.39 144.59 27.43C143.96 27.58 143.75 28.1 143.9 28.39C144.05 28.71 144.41 28.86 144.98 28.72C145.13 28.7 146 28.47 147.1 28.93C147.64 29.15 148.19 29.56 148.55 30.14C148.91 30.73 149.07 31.5 148.98 32.26C148.89 33.01 148.55 33.72 148.05 34.2C147.54 34.69 146.89 34.95 146.33 35.02C145.17 35.14 144.46 34.54 144.38 34.51C143.97 34.24 143.39 34.64 143.82 35.16V35.17Z" fill="#121C2D"/>
<path d="M134.23 21.67C134.37 21.75 135.42 21.91 136.35 22.37C137.3 22.8 138.06 23.49 138.14 23.57C138.36 23.77 139.39 22.89 139.01 22.53C138.91 22.43 137.92 21.64 136.75 21.24C135.6 20.8 134.38 20.77 134.3 20.81C134.09 20.88 134.07 21.56 134.23 21.67Z" fill="#121C2D"/>
<path d="M128.67 33.93C128.54 33.89 128.08 33.83 127.44 33.66C127.12 33.58 126.75 33.46 126.36 33.31C125.83 33.1 125.88 33.11 125.9 33.02C126.09 32.42 126.29 31.78 126.48 31.17C126.7 30.54 126.91 29.92 127.1 29.37C127.49 28.28 127.82 27.47 127.88 27.32C128.14 26.65 126.96 25.96 126.6 26.9C126.54 27.06 126.21 27.96 125.84 29.11C125.66 29.69 125.46 30.32 125.28 30.96C125.19 31.28 125.11 31.6 125.02 31.91C124.94 32.24 124.85 32.57 124.78 32.87C124.64 33.36 124.9 33.88 125.31 34.06L125.59 34.18L125.77 34.25C125.89 34.29 126.01 34.33 126.13 34.37C126.6 34.52 127.02 34.61 127.37 34.67C128.08 34.79 128.52 34.79 128.6 34.79C129.04 34.73 129.03 34.05 128.68 33.93H128.67Z" fill="#121C2D"/>
<path d="M127.3 40.56C127.38 40.63 127.75 40.8 128.31 40.91C128.86 41.02 129.59 41.04 130.3 40.91C131.75 40.69 132.95 39.74 133.06 39.62C133.41 39.29 132.47 38.32 132.14 38.63C132.06 38.71 131.16 39.51 129.99 39.75C128.84 40.06 127.66 39.75 127.57 39.75C127.35 39.77 127.1 40.4 127.29 40.56H127.3Z" fill="#121C2D"/>
<path d="M122.67 41.55C122.64 40.76 121.63 35.06 121.37 29.36C121.23 26.51 121.33 23.67 121.56 21.48C121.79 19.29 122.13 17.75 122.19 17.42C122.57 15.74 121.37 14.91 120.83 17.3C120.78 17.64 120.43 19.26 120.24 21.56C120.03 23.86 119.99 26.81 120.2 29.72C120.59 35.56 121.74 41.21 121.82 41.64C122.07 42.61 122.74 42.46 122.67 41.53V41.55Z" fill="#121C2D"/>
<path d="M143.16 38.95C143.02 39.32 142.62 41 141.33 42.9C140.69 43.84 139.82 44.83 138.71 45.62C137.61 46.42 136.27 47.03 134.87 47.31C133.47 47.6 132.03 47.55 130.74 47.17C129.45 46.81 128.32 46.18 127.39 45.54C125.54 44.23 124.41 42.98 124.15 42.75C122.88 41.44 121.52 41.99 123.32 43.83C123.59 44.06 124.78 45.37 126.86 46.76C127.9 47.44 129.2 48.11 130.71 48.47C132.22 48.84 133.9 48.81 135.46 48.4C137.03 48 138.48 47.25 139.66 46.3C140.84 45.35 141.73 44.24 142.36 43.21C143.63 41.12 143.93 39.41 143.98 39.19C144.13 38.11 143.45 38.05 143.16 38.95Z" fill="#121C2D"/>
<path d="M124.53 12.93C124.38 13.18 123.77 14.51 124.27 16.33C124.51 17.22 125.11 18.18 126.01 18.85C126.9 19.52 128.03 19.93 129.17 20.04C131.5 20.26 133.62 19.37 135.12 18.62C136.65 17.84 137.58 16.98 137.78 16.81C138.3 16.34 138.32 15.77 138.08 15.54C137.83 15.3 137.39 15.35 136.79 15.89C136.62 16.04 135.8 16.8 134.38 17.54C132.98 18.27 131.01 19.06 129.08 18.84C128.12 18.73 127.2 18.38 126.51 17.83C125.82 17.28 125.4 16.56 125.21 15.86C124.82 14.44 125.29 13.42 125.31 13.3C125.51 12.7 124.95 12.29 124.53 12.94V12.93Z" fill="#121C2D"/>
<path d="M125.85 7.25C125.86 7.09 125.93 6.67 125.8 6C125.73 5.67 125.58 5.26 125.27 4.89C124.95 4.52 124.48 4.23 123.95 4.12C123.42 4 122.84 4.01 122.28 4.18C121.7 4.34 121.16 4.71 120.75 5.15C119.89 6.05 119.45 7.22 119.13 8.33C118.81 9.46 118.62 10.72 118.92 11.92C119.21 13.12 119.97 14.13 120.95 14.63C121.41 14.87 122.03 15.01 122.51 14.92C122.99 14.85 123.36 14.69 123.65 14.55C124.23 14.25 124.54 13.99 124.66 13.91C125.81 12.97 125.12 11.8 123.75 12.9C123.65 12.97 123.37 13.19 122.94 13.41C122.73 13.51 122.48 13.6 122.23 13.62C122.11 13.64 121.99 13.62 121.87 13.59C121.72 13.55 121.57 13.49 121.43 13.4C120.84 13.07 120.29 12.33 120.11 11.44C119.91 10.53 120.06 9.47 120.36 8.42C120.65 7.38 121.07 6.39 121.73 5.76C122.35 5.13 123.27 4.97 123.91 5.17C124.56 5.36 124.83 5.88 124.92 6.33C125.01 6.78 124.99 7.12 125 7.2C125.05 7.94 125.73 8.01 125.86 7.25H125.85Z" fill="#121C2D"/>
<path d="M144.5 26.88C144.5 26.45 144.34 24.61 143.38 22.32C142.46 20.03 140.75 17.33 138.58 15.08C136.44 12.81 133.93 10.92 131.84 9.7C129.75 8.46 128.13 7.81 127.79 7.66C125.99 6.95 125.12 8.06 127.43 8.97C127.75 9.11 129.33 9.74 131.37 10.94C133.41 12.13 135.87 13.95 137.95 16.15C140.05 18.31 141.68 20.88 142.55 23C143.45 25.12 143.59 26.72 143.65 26.94C143.81 27.94 144.49 27.93 144.51 26.89L144.5 26.88Z" fill="#121C2D"/>
<path d="M151.12 30.59C151.25 30.45 151.47 30.21 151.78 29.87C152.04 29.5 152.43 29.04 152.75 28.43C153.44 27.23 154.08 25.49 154.33 23.41C154.45 22.37 154.49 21.25 154.38 20.08C154.29 18.91 154.08 17.7 153.69 16.49C153.31 15.29 152.76 14.06 152.04 12.99C151.7 12.43 151.37 11.87 150.94 11.36C150.52 10.85 150.17 10.28 149.68 9.82C147.91 7.84 145.66 6.27 143.3 5.36C140.94 4.43 138.54 4.14 136.48 4.19C132.32 4.34 129.54 5.56 128.98 5.79C128.22 6.08 127.66 6.45 127.3 6.77C126.94 7.09 126.78 7.35 126.83 7.52C126.88 7.68 127.14 7.75 127.61 7.65C128.08 7.55 128.77 7.3 129.75 6.94C130.28 6.75 132.96 5.59 136.9 5.48C138.86 5.45 141.11 5.78 143.29 6.69C145.48 7.58 147.53 9.12 149.18 11.02L150.34 12.51C150.7 13.02 151.02 13.57 151.35 14.09C152 15.14 152.47 16.24 152.79 17.38C153.42 19.65 153.51 21.9 153.23 23.8C152.98 25.7 152.37 27.24 151.77 28.25C151.17 29.27 150.64 29.82 150.53 29.97C149.38 31.18 149.77 31.74 151.11 30.61L151.12 30.59Z" fill="#121C2D"/>
<path d="M123.64 28.33C124.236 28.33 124.72 27.8465 124.72 27.25C124.72 26.6535 124.236 26.17 123.64 26.17C123.043 26.17 122.56 26.6535 122.56 27.25C122.56 27.8465 123.043 28.33 123.64 28.33Z" fill="#121C2D"/>
<path d="M134.48 28.66C135.076 28.66 135.56 28.1765 135.56 27.58C135.56 26.9835 135.076 26.5 134.48 26.5C133.883 26.5 133.4 26.9835 133.4 27.58C133.4 28.1765 133.883 28.66 134.48 28.66Z" fill="#121C2D"/>
<path d="M158.61 114.96C158.95 114.94 162.59 112.82 162.81 112.68C163.11 112.5 162.44 111.32 162.05 111.56C161.83 111.69 158.3 114.04 158.19 114.2C158.07 114.37 158.41 114.97 158.61 114.95V114.96Z" fill="#121C2D"/>
<path d="M153.24 101.34C153.72 101.01 156.9 98.23 160.24 95.69C163.56 93.12 167.03 90.79 167.44 90.52C168.06 90.1 167.86 89.79 168 89.54C168.02 89.39 167.96 89.1 167.59 89.08C167.17 89.13 166.97 89.22 166.58 89.47C166.17 89.74 162.63 92.21 159.32 94.9C155.99 97.57 152.89 100.44 152.68 100.69C152.19 101.24 152.68 101.73 153.24 101.35V101.34Z" fill="#121C2D"/>
<path d="M162.52 78.45C162.42 78.87 162.2 81.97 162.15 85.06C162.09 88.15 162.19 91.23 162.2 91.59C162.24 92.54 163.6 92.72 163.55 91.45C163.53 91.09 163.37 87.98 163.34 84.9C163.3 81.81 163.4 78.76 163.37 78.52C163.31 77.99 162.63 77.97 162.51 78.46L162.52 78.45Z" fill="#121C2D"/>
<path d="M150.73 98.12C151.07 99.24 157.55 113.65 157.96 114.56C158.5 115.74 159.87 115.49 159.14 113.89C158.73 113 151.86 98.35 151.52 97.79C151.14 97.16 150.53 97.47 150.73 98.12Z" fill="#121C2D"/>
<path d="M111.09 94.72C113.48 95.01 146.19 96.87 148.26 96.99C150.95 97.14 151.72 95.82 148.09 95.63C146.06 95.52 112.55 93.87 111.19 93.87C109.68 93.87 109.69 94.56 111.09 94.72Z" fill="#121C2D"/>
<path d="M109.06 116.73C109.3 115.36 110.47 96.64 110.54 95.46C110.63 93.92 109.3 93.44 109.18 95.52C109.11 96.68 108.17 115.87 108.2 116.65C108.23 117.52 108.92 117.53 109.06 116.73Z" fill="#121C2D"/>
<path d="M111.18 118.75C111.85 118.9 114.66 119.41 118.56 119.96C122.45 120.51 127.44 121.08 132.42 121.46C142.4 122.28 152.37 122.15 153.55 122.12C156.63 122.05 157.38 120.69 153.25 120.78C152.1 120.81 141.97 120.99 131.97 120.23C121.96 119.58 112.15 118.01 111.39 117.91C109.68 117.71 109.61 118.4 111.19 118.75H111.18Z" fill="#121C2D"/>
<path d="M122.26 22.31C122.37 22.31 122.99 21.97 123.67 21.95C124.35 21.9 124.95 22.15 125.01 22.18C125.16 22.25 125.87 21.08 125.48 20.91C125.38 20.86 124.4 20.56 123.46 20.77C122.51 20.93 121.76 21.54 121.75 21.62C121.67 21.78 122.12 22.3 122.26 22.31Z" fill="#121C2D"/>
<path d="M48.8099 32.93C54.7083 32.93 59.4899 28.1484 59.4899 22.25C59.4899 16.3516 54.7083 11.57 48.8099 11.57C42.9115 11.57 38.1299 16.3516 38.1299 22.25C38.1299 28.1484 42.9115 32.93 48.8099 32.93Z" fill="#6ADCB1"/>
<path d="M53.4099 17.86L47.2899 25.61C47.2899 25.61 47.2499 25.65 47.2299 25.67C47.1999 25.69 47.1699 25.7 47.1399 25.7C47.1099 25.7 47.0699 25.7 47.0399 25.7C47.0099 25.7 46.9799 25.68 46.9599 25.66C46.9299 25.64 46.9099 25.62 46.8899 25.59L44.9799 22.87C44.9399 22.79 44.8899 22.73 44.8199 22.67C44.7499 22.62 44.6799 22.58 44.5899 22.56C44.5099 22.54 44.4199 22.54 44.3399 22.56C44.2499 22.58 44.1699 22.61 44.0999 22.66C44.0299 22.71 43.9799 22.77 43.9299 22.85C43.8899 22.92 43.8599 23.01 43.8599 23.09C43.8599 23.17 43.8599 23.26 43.8899 23.34C43.9199 23.42 43.9699 23.49 44.0299 23.55L45.9299 26.25C46.0299 26.4 46.1599 26.54 46.3099 26.64C46.4699 26.74 46.6399 26.81 46.8199 26.85C46.9999 26.89 47.1899 26.89 47.3699 26.85C47.5499 26.81 47.7199 26.74 47.8799 26.64C48.0099 26.56 48.1199 26.45 48.2099 26.34L54.3299 18.6C54.3799 18.54 54.4099 18.47 54.4299 18.39C54.4499 18.31 54.4599 18.24 54.4499 18.16C54.4499 18.08 54.4199 18.01 54.3799 17.94C54.3499 17.87 54.2899 17.81 54.2299 17.77C54.1699 17.72 54.0999 17.69 54.0199 17.67C53.9499 17.65 53.8699 17.64 53.7899 17.65C53.7099 17.66 53.6399 17.68 53.5699 17.72C53.4999 17.76 53.4399 17.81 53.3999 17.87L53.4099 17.86Z" fill="white"/>
<path d="M11.8198 199.35C11.9898 199.23 12.1598 199.09 12.2998 198.91C12.7398 198.37 12.9998 197.7 13.2698 197.06C16.6498 188.99 23.7998 182.36 33.1598 183.66C37.7298 184.29 41.8398 186.8 45.1698 189.9C45.9698 190.65 47.1098 192.01 48.1998 192.03C48.6698 192.04 49.7298 191.8 50.1798 191.67C55.8298 190.01 59.4998 189.55 65.0098 191.62C70.5198 193.69 75.4898 199.08 76.5298 204.87C76.9498 207.21 76.6398 209.66 76.0498 211.96C75.3798 214.55 73.1798 217.02 71.0498 218.56C69.1998 219.9 67.0098 220.76 64.7398 221C62.1998 221.27 59.6998 221.46 57.1398 221.18C54.3698 220.87 51.4298 220.04 48.6698 220.85C47.1998 221.29 45.8998 222.16 44.5398 222.88C40.2598 225.15 34.8198 225.84 30.6298 223.41C28.5898 222.23 26.8998 220.36 24.6298 219.72C21.7998 218.91 18.5698 220 15.7798 220.6C11.4198 221.53 7.38981 221.55 4.31981 217.9C0.329815 213.15 -0.130185 204.12 6.06982 200.91C6.74981 200.56 7.4698 200.34 8.2298 200.19C9.3798 199.96 10.8298 200.04 11.8198 199.36V199.35Z" fill="white"/>
<path d="M16.3099 192.4C16.7299 191.83 17.4999 190.8 18.7399 189.55C19.9799 188.31 21.7199 186.82 24.1099 185.69C25.2999 185.12 26.6799 184.74 28.1899 184.46C29.6899 184.17 31.3199 184.1 33.0099 184.28C36.4099 184.62 39.9599 186.22 43.1599 188.74C43.9699 189.36 44.7499 190.05 45.5299 190.76C45.9199 191.13 46.3099 191.51 46.6999 191.88C47.2199 192.36 47.9099 192.58 48.5799 192.58C48.9099 192.58 49.2699 192.51 49.5699 192.4L50.3499 192.15C50.8699 191.97 51.4099 191.85 51.9399 191.71C53.0199 191.44 54.1299 191.27 55.2599 191.13C59.7499 190.68 64.7199 191.42 68.7599 194.14C69.2699 194.46 69.7299 194.87 70.2199 195.23C70.6599 195.65 71.1299 196.04 71.5399 196.5C72.3899 197.39 73.1699 198.36 73.8299 199.41C75.1499 201.5 76.0699 203.89 76.2299 206.39C76.3899 208.87 75.8499 211.44 74.6499 213.63C73.4299 215.83 71.5399 217.64 69.3599 218.94C67.1799 220.25 64.6999 221.09 62.1899 221.43C60.9299 221.59 59.6599 221.62 58.4099 221.5C57.1599 221.39 55.9499 221.07 54.6799 220.74C53.4199 220.42 52.0899 220.11 50.7099 220.1C49.3199 220.07 47.9199 220.47 46.7399 221.01C44.3499 222.06 42.2199 223.53 39.9799 224.06C37.6799 224.55 35.2799 224.25 33.0599 223.56C31.9499 223.2 30.8499 222.81 29.8799 222.26C28.8899 221.71 27.9299 221.04 26.8699 220.47C25.8299 219.89 24.6399 219.43 23.3799 219.35C22.1199 219.27 20.9499 219.59 19.8999 219.89C17.8199 220.52 15.8099 220.91 13.8199 220.97C11.8399 221.04 9.93988 220.75 8.25988 220.12C6.58988 219.47 5.15988 218.48 4.08988 217.25C3.01988 216.03 2.27988 214.64 1.86988 213.26C1.76988 212.91 1.68988 212.57 1.61988 212.23C1.57988 211.88 1.54988 211.55 1.50988 211.21L1.45989 210.71L1.47988 210.22C1.48988 209.9 1.50989 209.58 1.51989 209.27C1.83989 206.8 2.98989 204.94 4.02989 203.74C5.07989 202.51 6.06988 201.92 6.55988 201.59C9.18988 200 11.7999 199.74 13.5699 199.93C14.4499 200.07 15.1699 200.15 15.6599 200.31C16.1599 200.43 16.4799 200.47 16.5899 200.42C16.6999 200.37 16.5699 200.23 16.1999 199.99C15.8199 199.75 15.1999 199.38 14.2099 199.13C13.2399 198.83 11.8899 198.68 10.2499 198.87C8.60989 199.06 6.67989 199.75 4.81989 201.14C4.56989 201.35 4.20989 201.67 3.73989 202.08C3.50989 202.29 3.28989 202.57 3.02989 202.85C2.89989 202.99 2.76989 203.14 2.62989 203.3C2.50989 203.47 2.37989 203.65 2.24989 203.84C1.19989 205.31 0.139886 207.58 0.139886 210.47C0.119886 213.31 1.35989 216.7 4.16989 219.17C5.56989 220.39 7.34988 221.33 9.30988 221.8C11.2699 222.29 13.3799 222.38 15.5099 222.14C16.5799 222.02 17.6499 221.82 18.7199 221.55C19.7999 221.28 20.8199 220.91 21.8499 220.73C22.8699 220.53 23.8599 220.59 24.8499 220.94C25.8399 221.28 26.7999 221.87 27.7899 222.48C28.7699 223.09 29.8599 223.75 31.0299 224.18C32.1699 224.62 33.3599 225 34.5999 225.25C37.0499 225.73 39.8199 225.74 42.2599 224.61C44.6399 223.59 46.7799 222.08 49.1099 221.49C51.4499 220.93 53.9199 221.85 56.5299 222.42C59.1999 222.98 61.9999 222.84 64.6399 222.17C67.2799 221.5 69.8099 220.3 71.9599 218.58C74.0999 216.87 75.8299 214.56 76.6999 211.93C77.5899 209.33 77.6899 206.47 77.0399 203.84C76.4099 201.19 75.0599 198.8 73.3799 196.79C71.7299 194.75 69.6099 193.1 67.3099 191.96C62.6599 189.72 57.4699 189.47 52.8999 190.38C51.7499 190.59 50.6299 190.91 49.5499 191.27C49.2499 191.36 49.0499 191.44 48.8399 191.47C48.6199 191.5 48.3999 191.49 48.1899 191.44C47.9799 191.4 47.7899 191.31 47.6199 191.2C47.4799 191.11 47.2899 190.9 47.0799 190.71C45.4999 189.18 43.8599 187.8 42.1399 186.66C38.7199 184.34 34.8699 183.12 31.3899 183.17C29.6599 183.17 28.0199 183.4 26.5599 183.81C25.0799 184.17 23.7599 184.75 22.6199 185.39C20.3599 186.69 18.8099 188.18 17.7299 189.32C16.6599 190.48 16.0599 191.32 15.8099 191.65C13.6799 194.69 13.2499 196.48 13.3799 196.54C13.5899 196.65 14.3699 195.07 16.3399 192.38L16.3099 192.4Z" fill="#121C2D"/>
</g>
<defs>
<clipPath id="clip0_4_3854">
<rect width="184" height="252" fill="white" transform="translate(0.5)"/>
</clipPath>
</defs>
</svg>
