<svg width="288" height="170" viewBox="0 0 288 170" fill="none" xmlns="http://www.w3.org/2000/svg">
<mask id="mask0_125_1080" style="mask-type:alpha" maskUnits="userSpaceOnUse" x="0" y="0" width="288" height="170">
<rect width="288" height="170" fill="#D9D9D9"/>
</mask>
<g mask="url(#mask0_125_1080)">
<circle cx="140" cy="85" r="82" fill="#F22F46"/>
<path d="M112.66 71.9304C112.484 72.0025 110.624 71.4334 110.512 71.3853C110.359 71.3292 110.68 70.2952 110.888 70.3673C111.001 70.4074 112.836 71.1929 112.892 71.2731C112.956 71.3693 112.772 71.8823 112.668 71.9223L112.66 71.9304Z" fill="#121C2D" stroke="#121C2D"/>
<path d="M117.204 73.5094C117.028 73.5815 115.168 73.0205 115.056 72.9804C114.904 72.9243 115.224 71.8903 115.425 71.9624C115.537 72.0025 117.372 72.78 117.429 72.8601C117.493 72.9563 117.308 73.4693 117.204 73.5094Z" fill="#121C2D" stroke="#121C2D"/>
<path d="M121.749 75.0805C121.573 75.1526 119.713 74.5915 119.593 74.5514C119.44 74.5033 119.753 73.4613 119.962 73.5335C120.074 73.5735 121.917 74.343 121.973 74.4312C122.038 74.5274 121.853 75.0404 121.749 75.0805Z" fill="#121C2D" stroke="#121C2D"/>
<path d="M126.295 76.6355C126.119 76.7076 124.259 76.1545 124.147 76.1145C123.994 76.0664 124.307 75.0243 124.507 75.0965C124.62 75.1366 126.455 75.9061 126.511 75.9862C126.575 76.0824 126.391 76.5954 126.295 76.6355Z" fill="#121C2D" stroke="#121C2D"/>
<path d="M130.847 78.1825C130.67 78.2546 128.811 77.7015 128.691 77.6615C128.538 77.6134 128.851 76.5713 129.051 76.6435C129.164 76.6836 131.007 77.445 131.063 77.5332C131.127 77.6294 130.943 78.1424 130.847 78.1825Z" fill="#121C2D" stroke="#121C2D"/>
<path d="M135.4 79.7375C135.223 79.8096 133.364 79.2566 133.244 79.2165C133.091 79.1684 133.404 78.1264 133.604 78.1985C133.716 78.2386 135.56 79.0001 135.616 79.0882C135.68 79.1844 135.496 79.6974 135.4 79.7375Z" fill="#121C2D" stroke="#121C2D"/>
<path d="M139.944 81.2845C139.768 81.3567 137.909 80.8036 137.788 80.7635C137.636 80.7154 137.949 79.6734 138.149 79.7455C138.261 79.7856 140.105 80.5551 140.161 80.6353C140.225 80.7314 140.041 81.2444 139.944 81.2845Z" fill="#121C2D" stroke="#121C2D"/>
<path d="M144.498 82.8475C144.322 82.9196 142.462 82.3666 142.342 82.3265C142.19 82.2784 142.502 81.2364 142.703 81.3085C142.815 81.3486 144.658 82.1181 144.715 82.1982C144.779 82.2944 144.594 82.8074 144.498 82.8475Z" fill="#121C2D" stroke="#121C2D"/>
<path d="M149.043 84.4106C148.867 84.4827 147.007 83.9216 146.887 83.8815C146.735 83.8334 147.047 82.7914 147.256 82.8636C147.368 82.9036 149.211 83.6731 149.259 83.7613C149.324 83.8575 149.139 84.3705 149.035 84.4106H149.043Z" fill="#121C2D" stroke="#121C2D"/>
<path d="M153.587 85.9816C153.411 86.0538 151.551 85.4847 151.439 85.4446C151.287 85.3885 151.607 84.3545 151.808 84.4266C151.92 84.4667 153.755 85.2442 153.811 85.3244C153.876 85.4205 153.691 85.9335 153.587 85.9736V85.9816Z" fill="#121C2D" stroke="#121C2D"/>
<path d="M158.124 87.5687C157.948 87.6408 156.088 87.0717 155.976 87.0316C155.824 86.9755 156.144 85.9415 156.345 86.0137C156.457 86.0538 158.292 86.8393 158.348 86.9194C158.413 87.0156 158.228 87.5286 158.124 87.5687Z" fill="#121C2D" stroke="#121C2D"/>
<path d="M162.661 89.1798C162.485 89.252 160.625 88.6748 160.513 88.6348C160.361 88.5787 160.689 87.5447 160.89 87.6168C161.002 87.6569 162.829 88.4504 162.886 88.5306C162.95 88.6268 162.765 89.1397 162.661 89.1798Z" fill="#121C2D" stroke="#121C2D"/>
<path d="M167.182 90.799C167.005 90.8711 165.154 90.286 165.034 90.2379C164.881 90.1818 165.21 89.1478 165.418 89.2279C165.531 89.268 167.358 90.0696 167.414 90.1497C167.478 90.2459 167.286 90.7589 167.182 90.799Z" fill="#121C2D" stroke="#121C2D"/>
<path d="M171.702 92.4501C171.526 92.5223 169.674 91.9211 169.562 91.881C169.41 91.8249 169.747 90.7989 169.947 90.8711C170.059 90.9111 171.887 91.7207 171.935 91.8009C171.999 91.8971 171.807 92.41 171.702 92.4501Z" fill="#121C2D" stroke="#121C2D"/>
<path d="M176.206 94.1174C176.03 94.1895 174.178 93.5803 174.066 93.5403C173.914 93.4842 174.259 92.4582 174.459 92.5303C174.571 92.5704 176.391 93.388 176.447 93.4761C176.511 93.5723 176.311 94.0853 176.206 94.1254V94.1174Z" fill="#121C2D" stroke="#121C2D"/>
<path d="M180.704 95.8167C180.527 95.8808 178.684 95.2636 178.572 95.2236C178.419 95.1674 178.764 94.1415 178.972 94.2136C179.085 94.2537 180.896 95.0873 180.952 95.1674C181.008 95.2636 180.816 95.7766 180.712 95.8087L180.704 95.8167Z" fill="#121C2D" stroke="#121C2D"/>
<path d="M185.193 97.54C185.017 97.6041 183.174 96.9789 183.061 96.9308C182.909 96.8747 183.262 95.8487 183.462 95.9289C183.574 95.969 185.386 96.8106 185.434 96.8988C185.49 96.995 185.29 97.4999 185.185 97.54H185.193Z" fill="#121C2D" stroke="#121C2D"/>
<path d="M189.666 99.3034C189.49 99.3676 187.654 98.7263 187.542 98.6782C187.39 98.6221 187.75 97.5961 187.951 97.6763C188.063 97.7244 189.866 98.574 189.914 98.6622C189.971 98.7584 189.77 99.2634 189.666 99.3034Z" fill="#121C2D" stroke="#121C2D"/>
<path d="M194.122 101.099C193.946 101.163 192.11 100.506 191.998 100.458C191.854 100.402 192.215 99.3756 192.415 99.4558C192.527 99.5038 194.323 100.37 194.371 100.458C194.427 100.554 194.218 101.059 194.114 101.099H194.122Z" fill="#121C2D" stroke="#121C2D"/>
<path d="M198.562 102.934C198.386 102.999 196.558 102.317 196.446 102.277C196.302 102.213 196.679 101.203 196.879 101.283C196.991 101.331 198.779 102.213 198.827 102.301C198.883 102.397 198.675 102.902 198.562 102.934Z" fill="#121C2D" stroke="#121C2D"/>
<path d="M202.996 104.81C202.812 104.866 201 104.177 200.888 104.129C200.744 104.065 201.128 103.055 201.329 103.135C201.441 103.183 203.22 104.081 203.269 104.169C203.325 104.265 203.108 104.77 203.004 104.802L202.996 104.81Z" fill="#121C2D" stroke="#121C2D"/>
<path d="M207.395 106.726C207.211 106.782 205.408 106.077 205.295 106.028C205.151 105.964 205.544 104.954 205.744 105.043C205.856 105.091 207.628 106.012 207.676 106.101C207.732 106.197 207.508 106.702 207.403 106.734L207.395 106.726Z" fill="#121C2D" stroke="#121C2D"/>
<path d="M211.78 108.69C211.596 108.746 209.8 108.016 209.688 107.968C209.544 107.904 209.945 106.894 210.145 106.982C210.257 107.03 212.013 107.968 212.061 108.056C212.117 108.153 211.884 108.65 211.78 108.682V108.69Z" fill="#121C2D" stroke="#121C2D"/>
<path d="M216.14 110.71C215.956 110.766 214.168 110.012 214.056 109.964C213.912 109.9 214.328 108.898 214.521 108.986C214.633 109.034 216.38 109.996 216.428 110.084C216.485 110.181 216.244 110.677 216.14 110.71Z" fill="#121C2D" stroke="#121C2D"/>
<path d="M220.476 112.778C220.291 112.826 218.512 112.056 218.4 112C218.255 111.928 218.688 110.934 218.881 111.03C218.993 111.086 220.724 112.064 220.772 112.152C220.82 112.249 220.58 112.745 220.476 112.77V112.778Z" fill="#121C2D" stroke="#121C2D"/>
<path d="M224.789 114.902C224.605 114.95 222.834 114.156 222.721 114.1C222.577 114.028 223.018 113.042 223.21 113.138C223.323 113.194 225.046 114.196 225.086 114.285C225.134 114.381 224.886 114.87 224.781 114.902H224.789Z" fill="#121C2D" stroke="#121C2D"/>
<path d="M229.07 117.09C228.886 117.138 227.131 116.312 227.018 116.256C226.874 116.184 227.331 115.198 227.523 115.302C227.628 115.359 229.343 116.385 229.383 116.481C229.431 116.585 229.175 117.066 229.07 117.09Z" fill="#121C2D" stroke="#121C2D"/>
<path d="M233.31 119.342C233.126 119.382 231.379 118.541 231.274 118.477C231.138 118.404 231.603 117.427 231.795 117.531C231.9 117.587 233.599 118.645 233.639 118.733C233.687 118.837 233.423 119.318 233.318 119.342H233.31Z" fill="#121C2D" stroke="#121C2D"/>
<path d="M237.518 121.659C237.333 121.699 235.602 120.825 235.49 120.761C235.353 120.681 235.834 119.711 236.027 119.823C236.131 119.879 237.806 120.969 237.846 121.058C237.894 121.162 237.622 121.635 237.51 121.659H237.518Z" fill="#121C2D" stroke="#121C2D"/>
<path d="M241.687 124.055C241.503 124.096 239.787 123.182 239.675 123.126C239.539 123.045 240.044 122.084 240.228 122.196C240.332 122.26 241.991 123.374 242.032 123.462C242.072 123.566 241.799 124.039 241.687 124.055Z" fill="#121C2D" stroke="#121C2D"/>
<path d="M245.806 126.524C245.621 126.556 243.922 125.618 243.818 125.554C243.682 125.474 244.203 124.52 244.387 124.633C244.491 124.697 246.126 125.843 246.166 125.931C246.206 126.035 245.918 126.5 245.806 126.516V126.524Z" fill="#121C2D" stroke="#121C2D"/>
<path d="M249.878 129.073C249.686 129.105 248.01 128.127 247.906 128.063C247.77 127.975 248.307 127.037 248.491 127.149C248.596 127.214 250.207 128.392 250.239 128.488C250.279 128.592 249.982 129.049 249.87 129.073H249.878Z" fill="#121C2D" stroke="#121C2D"/>
<path d="M253.894 131.702C253.702 131.726 252.051 130.716 251.946 130.652C251.81 130.564 252.371 129.634 252.556 129.754C252.66 129.819 254.247 131.037 254.279 131.125C254.319 131.229 254.006 131.686 253.894 131.702Z" fill="#121C2D" stroke="#121C2D"/>
<path d="M257.845 134.428C257.653 134.452 256.026 133.402 255.922 133.337C255.794 133.249 256.371 132.328 256.547 132.456C256.643 132.528 258.206 133.77 258.238 133.866C258.27 133.971 257.958 134.42 257.845 134.428Z" fill="#121C2D" stroke="#121C2D"/>
<path d="M261.734 137.241C261.541 137.257 259.938 136.175 259.842 136.103C259.714 136.007 260.315 135.109 260.491 135.237C260.587 135.309 262.118 136.592 262.15 136.688C262.183 136.792 261.854 137.233 261.742 137.241H261.734Z" fill="#121C2D" stroke="#121C2D"/>
<path d="M265.548 140.151C265.356 140.159 263.777 139.037 263.68 138.964C263.552 138.868 264.177 137.978 264.354 138.115C264.45 138.187 265.949 139.517 265.973 139.614C266.005 139.718 265.66 140.151 265.548 140.159V140.151Z" fill="#121C2D" stroke="#121C2D"/>
<path d="M269.284 143.173C269.092 143.173 267.545 142.01 267.457 141.93C267.336 141.826 267.978 140.96 268.146 141.097C268.242 141.177 269.701 142.539 269.725 142.635C269.749 142.748 269.396 143.165 269.284 143.165V143.173Z" fill="#121C2D" stroke="#121C2D"/>
<path d="M272.931 146.291C272.739 146.291 271.232 145.08 271.136 145C271.015 144.896 271.689 144.046 271.849 144.19C271.937 144.271 273.356 145.681 273.38 145.778C273.404 145.89 273.035 146.299 272.923 146.299L272.931 146.291Z" fill="#121C2D" stroke="#121C2D"/>
<path d="M276.474 149.529C276.282 149.529 274.815 148.262 274.719 148.182C274.599 148.078 275.304 147.244 275.456 147.397C275.545 147.477 276.923 148.936 276.939 149.032C276.955 149.144 276.579 149.537 276.466 149.537L276.474 149.529Z" fill="#121C2D" stroke="#121C2D"/>
<path d="M279.912 152.871C279.72 152.863 278.293 151.549 278.205 151.469C278.093 151.356 278.814 150.555 278.974 150.707C279.063 150.795 280.385 152.294 280.401 152.39C280.417 152.503 280.024 152.887 279.912 152.879V152.871Z" fill="#121C2D" stroke="#121C2D"/>
<path d="M283.23 156.342C283.038 156.326 281.659 154.963 281.579 154.875C281.467 154.763 282.22 153.978 282.373 154.138C282.453 154.226 283.727 155.773 283.735 155.869C283.751 155.981 283.342 156.35 283.23 156.342Z" fill="#121C2D" stroke="#121C2D"/>
<path d="M286.413 159.925C286.221 159.901 284.898 158.49 284.818 158.402C284.714 158.282 285.491 157.528 285.635 157.697C285.716 157.785 286.926 159.38 286.934 159.476C286.934 159.588 286.525 159.941 286.413 159.925Z" fill="#121C2D" stroke="#121C2D"/>
<path d="M289.458 163.628C289.266 163.596 288 162.137 287.919 162.041C287.823 161.921 288.633 161.199 288.769 161.368C288.849 161.464 289.995 163.099 289.995 163.203C289.995 163.316 289.571 163.652 289.458 163.636V163.628Z" fill="#121C2D" stroke="#121C2D"/>
<path d="M131.719 62.1638C131.719 62.2199 131.719 62.2841 131.703 62.3402C131.631 62.8692 129.875 65.2017 129.571 65.6426C127.535 68.6003 125.507 71.5661 123.471 74.5238C122.83 75.4616 122.108 76.4555 121.026 76.8002C120 77.1288 118.886 76.7922 117.884 76.4155C115.455 75.5097 113.123 74.3635 110.814 73.1852C104.907 70.1553 99.1357 66.8609 93.1641 63.9593C79.0888 57.1301 64.0516 52.5852 49.7599 46.253C48.1087 45.5236 46.4735 44.7701 44.8464 43.9846C44.0528 43.5998 40.5821 42.3173 42.8184 41.9887C44.4376 41.7482 46.6018 42.3654 48.2049 42.6219C49.9924 42.9025 51.7718 43.2471 53.5352 43.6319C60.645 45.1949 67.5705 47.4553 74.6241 49.2348C83.7619 51.5432 93.108 53.0261 102.19 55.551C110.077 57.7473 117.844 60.7531 126.004 61.4023C126.958 61.4825 127.944 61.5306 128.809 61.9474C129.619 62.3402 131.743 61.2821 131.719 62.1638Z" fill="#121C2D"/>
<path d="M33.0543 38.8386C56.5639 49.1867 88.6501 60.697 110.38 72.2875C114.388 74.4276 118.388 76.5598 122.396 78.6999C123.141 79.1007 123.967 79.5896 124.151 80.4152C124.295 81.0565 123.999 81.6977 123.718 82.2909C119.606 90.8595 112.376 107.516 109.763 113.56C109.282 114.674 107.847 114.986 106.95 114.177C80.8029 90.7312 55.1692 67.1735 32.9982 39.9287C32.4291 39.2314 32.9421 38.1813 33.8398 38.1974C48.5964 38.4539 63.3531 39.047 78.1017 39.7043C86.2374 40.065 94.3812 40.2814 102.517 40.6982C106.749 40.9146 110.973 41.1872 115.19 41.5559C118.564 41.8524 123.173 41.4757 125.714 44.1369C126.676 45.1468 127.125 46.5255 127.542 47.8561L131.389 60.1279C131.87 61.6589 130.459 63.1097 128.92 62.6688C98.5413 53.9078 62.4233 47.3752 33.0623 38.8386" fill="white"/>
<path d="M44.8291 41.5479C48.1315 42.3815 56.644 44.5457 69.1323 47.4232C75.3764 48.858 82.6064 50.5172 90.646 52.3608C98.6856 54.2204 107.543 56.3045 117.001 58.7492C119.358 59.3824 121.762 60.0237 124.199 60.6729C125.417 61.0096 126.636 61.3543 127.87 61.6989C128.471 61.8432 129.185 62.1238 129.529 62.0837C129.962 62.0676 130.379 61.8111 130.611 61.4344C130.724 61.242 130.796 61.0336 130.812 60.8172C130.82 60.705 130.812 60.6008 130.796 60.4886L130.756 60.3283L130.684 60.0958C130.491 59.4706 130.291 58.8454 130.09 58.2202C129.698 56.9617 129.297 55.7033 128.896 54.4288C128.087 51.9039 127.301 49.2668 126.451 46.7419C126.227 46.1327 125.954 45.5556 125.602 45.0667C125.257 44.5777 124.792 44.185 124.287 43.8323C123.237 43.167 121.963 42.8143 120.632 42.6219C119.302 42.4376 117.915 42.3815 116.496 42.3173C115.085 42.2212 113.667 42.133 112.24 42.0368C109.402 41.8444 106.549 41.6521 103.663 41.4597C100.778 41.2753 97.86 41.2112 94.9182 41.0749C89.0429 40.8425 83.0873 40.602 77.0757 40.3615C71.056 40.1612 64.9802 39.9608 58.8563 39.7524C52.7405 39.552 46.5765 39.3436 40.3965 39.1352L35.7555 38.9829L34.5933 38.9428L34.0162 38.9268C33.7677 38.9188 33.7356 38.9268 33.6875 38.9348C33.5833 38.9668 33.4791 39.0791 33.4631 39.2073C33.4551 39.2714 33.4631 39.3275 33.4791 39.3756C33.4951 39.3997 33.5031 39.4317 33.5272 39.4558L33.7035 39.6722C35.6834 42.0448 37.6392 44.4495 39.6671 46.79C55.7783 65.6105 73.637 82.8279 90.8704 98.6105C95.1748 102.562 99.4551 106.426 103.655 110.201C104.705 111.147 105.755 112.085 106.797 113.022L107.19 113.375C107.318 113.495 107.463 113.624 107.519 113.664C107.679 113.784 107.871 113.84 108.064 113.848C108.465 113.864 108.841 113.624 109.002 113.263C110.108 110.722 111.19 108.213 112.272 105.728C114.436 100.759 116.576 95.9173 118.684 91.2202C119.742 88.8716 120.792 86.5632 121.85 84.3028C122.115 83.7337 122.38 83.1726 122.644 82.6115C122.901 82.0424 123.213 81.4813 123.309 81.0645C123.406 80.6316 123.341 80.4313 123.061 80.1106C122.772 79.806 122.291 79.5415 121.754 79.261C117.498 76.9926 113.394 74.8124 109.466 72.7123C105.539 70.6443 101.715 68.7767 98.0523 67.0693C90.7261 63.6547 84.0572 60.8252 78.31 58.4206C66.8157 53.6433 59.0327 50.5413 56.3154 49.4271C42.1519 43.7201 33.4791 39.4638 33.0463 38.8306C32.6295 38.1813 40.3484 41.2513 59.4976 48.9622C62.1668 50.0604 70.038 53.1944 81.7006 58.1C87.5279 60.5687 94.3011 63.4944 101.748 67.0533C105.459 68.8488 109.354 70.8206 113.33 72.9768C115.326 74.0429 117.37 75.133 119.446 76.2471C120.488 76.8002 121.538 77.3613 122.596 77.9304C123.125 78.219 123.75 78.5316 124.295 79.1327C124.568 79.4373 124.8 79.8461 124.88 80.303C124.969 80.7599 124.904 81.2008 124.8 81.5695C124.568 82.3149 124.263 82.8119 124.015 83.381C123.75 83.9341 123.486 84.4951 123.221 85.0562C122.7 86.1864 122.171 87.3246 121.642 88.4709C120.6 90.7793 119.542 93.1199 118.468 95.4925C116.344 100.254 114.188 105.167 111.991 110.209C111.719 110.842 111.446 111.467 111.166 112.101L110.757 113.055L110.549 113.535C110.476 113.704 110.428 113.824 110.3 114.073C109.835 114.962 108.793 115.491 107.799 115.371C107.302 115.323 106.821 115.107 106.445 114.786L105.643 114.073C103.551 112.189 101.443 110.289 99.3108 108.373C95.0545 104.534 90.7422 100.59 86.3897 96.5746C68.996 80.4874 51.0732 62.8612 35.0662 43.5998L33.5673 41.7883L32.8218 40.8826L32.4451 40.4337C32.3008 40.2734 32.0844 39.9287 32.0363 39.6241C31.9 38.9749 32.1565 38.3016 32.6535 37.8928C32.902 37.6844 33.2226 37.5561 33.5432 37.516L33.7837 37.5H33.936L34.2245 37.516L36.5651 37.5962C39.6831 37.7004 42.7932 37.8126 45.9032 37.9168C52.1152 38.1332 58.3033 38.3496 64.4512 38.5581C76.739 38.9508 88.8184 39.4798 100.537 39.9608C106.38 40.2413 112.192 40.7623 117.787 41.0669C119.205 41.1391 120.648 41.2352 122.091 41.5719C123.518 41.9005 124.969 42.5257 126.059 43.6399C127.181 44.7781 127.638 46.245 128.055 47.5435C128.463 48.85 128.872 50.1485 129.273 51.439C130.082 54.02 130.876 56.569 131.662 59.0778C131.758 59.4065 131.854 59.679 131.958 60.0397C132.078 60.4485 132.086 60.8974 131.99 61.3142C131.798 62.1558 131.189 62.8612 130.395 63.1818C130.002 63.3421 129.561 63.4062 129.145 63.3501C128.688 63.286 128.423 63.1818 128.103 63.0936C127.485 62.9173 126.868 62.749 126.251 62.5726C121.346 61.1699 116.552 59.9275 111.927 58.7412C93.4274 54.0842 77.5806 50.6375 65.9821 47.8641C54.3756 45.1308 46.9933 43.191 45.1417 42.7021C41.0057 41.5879 37.9518 40.6902 35.9559 40.0169C33.952 39.3516 32.9821 38.9588 33.0062 38.8466C33.0623 38.5981 37.0701 39.568 44.789 41.5479H44.8291Z" fill="#121C2D"/>
</g>
</svg>
