<svg width="133" height="49" viewBox="0 0 133 49" fill="none" xmlns="http://www.w3.org/2000/svg">
<path d="M15.386 33.3462C17.5101 33.3462 19.2321 31.6242 19.2321 29.5C19.2321 27.3758 17.5101 25.6539 15.386 25.6539C13.2618 25.6539 11.5398 27.3758 11.5398 29.5C11.5398 31.6242 13.2618 33.3462 15.386 33.3462ZM15.386 23.3462C17.5101 23.3462 19.2321 21.6242 19.2321 19.5C19.2321 17.3758 17.5101 15.6538 15.386 15.6538C13.2618 15.6538 11.5398 17.3758 11.5398 19.5C11.5398 21.6242 13.2618 23.3462 15.386 23.3462ZM25.386 33.3462C27.5101 33.3462 29.2321 31.6242 29.2321 29.5C29.2321 27.3758 27.5101 25.6539 25.386 25.6539C23.2618 25.6539 21.5398 27.3758 21.5398 29.5C21.5398 31.6242 23.2618 33.3462 25.386 33.3462ZM25.386 23.3462C27.5101 23.3462 29.2321 21.6242 29.2321 19.5C29.2321 17.3758 27.5101 15.6538 25.386 15.6538C23.2618 15.6538 21.5398 17.3758 21.5398 19.5C21.5398 21.6242 23.2618 23.3462 25.386 23.3462ZM20.3859 4.5C31.2192 4.5 40.386 13.6667 40.386 24.5C40.386 35.3333 31.2192 44.5 20.3859 44.5C9.55264 44.5 0.385963 35.3333 0.385963 24.5C0.385963 13.6668 9.55269 4.5 20.3859 4.5ZM20.3859 9.88461C12.3371 9.88461 5.77058 16.2238 5.77058 24.2315C5.77058 32.2392 12.3371 39.1154 20.3859 39.1154C28.4348 39.1154 35.0013 32.2392 35.0013 24.2315C35.0013 16.2238 28.4348 9.88461 20.3859 9.88461ZM63.0707 36.4231H69.3553C69.5814 36.4231 69.6783 36.3262 69.743 36.1L71.8242 28.4166L73.8431 36.1C73.9077 36.3262 74.0047 36.4231 74.2308 36.4231H80.5127C80.7712 36.4231 80.9327 36.3262 80.9974 36.1L85.3871 19.8077V36.0354C85.3871 36.2615 85.5486 36.4231 85.7748 36.4231H92.6885C92.9147 36.4231 93.0762 36.2615 93.0762 36.0354V19.1185C93.0762 18.8923 92.9147 18.7308 92.6885 18.7308L79.2167 18.7321C78.9905 18.7321 78.8613 18.8291 78.7967 19.0875L77.2708 26.9076L75.7342 19.0875C75.7019 18.8614 75.5403 18.7321 75.3142 18.7321H68.476C68.2499 18.7321 68.0884 18.8614 68.0561 19.0875L66.5598 26.9076L65.0683 19.0875C65.0037 18.8291 64.8744 18.7321 64.6483 18.7321L54.4398 18.7308V12.9678C54.4398 12.677 54.2396 12.5478 53.9165 12.6447L47.4983 14.715C47.2721 14.7796 47.1429 14.9735 47.1429 15.1996L47.1353 17.9155C47.1353 18.594 46.78 18.8847 46.1015 18.8847H44.4422C44.2161 18.8847 44.0545 19.0462 44.0545 19.2724V24.1139C44.0545 24.3401 44.2161 24.5016 44.4422 24.5016H46.9245V30.3815C46.9245 34.5492 48.5644 36.9046 53.5721 36.9046C55.5106 36.9046 57.0952 36.6555 57.9352 36.2678C58.1937 36.1386 58.286 35.977 58.286 35.7186V31.1413C58.286 30.8828 58.0321 30.7536 57.7091 30.9151C57.2891 31.109 56.8029 31.1413 56.3183 31.1413C55.026 31.1413 54.6136 30.6567 54.6136 29.0413V24.5016H57.624C57.8501 24.5016 58.0009 24.3518 58.0009 24.1257V19.8077L62.5861 36.1C62.6507 36.3262 62.8123 36.4231 63.0707 36.4231ZM85.3871 16.8053C85.3871 17.0315 85.5486 17.1931 85.7748 17.1931H92.6885C92.9147 17.1931 93.0762 17.0315 93.0762 16.8053V12.9678C93.0762 12.7416 92.9147 12.5801 92.6885 12.5801H85.7748C85.5486 12.5801 85.3871 12.7416 85.3871 12.9678V16.8053ZM94.6159 36.0354C94.6159 36.2615 94.7774 36.4231 95.0035 36.4231H101.925C102.151 36.4231 102.312 36.2615 102.312 36.0354V12.9678C102.312 12.7416 102.151 12.5801 101.925 12.5801H95.0035C94.7774 12.5801 94.6159 12.7416 94.6159 12.9678V36.0354ZM103.851 36.0354C103.851 36.2615 104.013 36.4231 104.239 36.4231H111.141C111.368 36.4231 111.529 36.2615 111.529 36.0354L111.525 19.1185C111.525 18.8923 111.364 18.7308 111.138 18.7308H104.235C104.009 18.7308 103.848 18.8923 103.848 19.1185L103.851 36.0354ZM103.848 16.8053C103.848 17.0315 104.009 17.1931 104.235 17.1931H111.141C111.368 17.1931 111.529 17.0315 111.529 16.8053L111.525 12.9678C111.525 12.7416 111.364 12.5801 111.138 12.5801H104.235C104.009 12.5801 103.848 12.7416 103.848 12.9678V16.8053ZM112.738 27.7323C112.738 32.9985 116.781 36.9615 122.694 36.9615C128.606 36.9615 132.614 32.9985 132.614 27.7323V27.3123C132.614 22.0462 128.606 18.1923 122.694 18.1923C116.781 18.1923 112.738 22.0462 112.738 27.3123V27.7323ZM120.155 27.7462V27.4307C120.155 25.0077 121.272 24.06 122.694 24.06C124.115 24.06 125.238 25.0077 125.238 27.4307V27.7462C125.238 30.137 124.115 31.1369 122.694 31.1369C121.272 31.1369 120.155 30.137 120.155 27.7462Z" fill="#F22F46"/>
</svg>
