<svg width="223" height="135" viewBox="0 0 223 135" fill="none" xmlns="http://www.w3.org/2000/svg">
<path d="M15.5185 39.7685C15.3472 45.2757 15.4664 50.8651 15.5185 56.3798C15.66 70.6597 15.5483 86.2922 16.1291 100.557C16.3302 105.511 16.3823 111.161 16.7025 116.1C16.8886 118.917 16.2259 123.117 18.6162 125.216C21.1927 127.488 22.0193 127.01 25.1319 127.062C30.1285 127.152 35.1251 126.771 40.1217 126.845C60.1081 127.144 80.1019 127.331 100.088 127.398C139.733 127.533 179.378 127.204 219.016 126.419C219.575 126.412 220.029 125.949 220.029 125.388C220.334 82.7203 222.382 46.3966 222.583 1.85317C222.583 1.28526 222.121 0.814499 221.555 0.807026C156.123 0.0896683 97.0873 2.86943 20.9098 0.724828C17.9014 0.642631 15.4291 3.08613 15.4738 6.10501C15.6078 14.4667 15.794 30.3383 15.511 39.7685H15.5185Z" fill="#F1FAFF"/>
<path d="M15.9727 22.4847C15.9727 20.0412 15.9504 15.6847 15.8685 9.63951C15.861 8.88479 15.8462 8.10017 15.8387 7.29314C15.8387 6.88963 15.8313 6.47864 15.8238 6.06765C15.8313 5.67908 15.861 5.28305 15.9578 4.89448C16.3078 3.33273 17.5365 1.85318 19.2566 1.32264C20.1055 1.01627 21.0289 1.09099 22.0491 1.11341C23.0543 1.13583 24.082 1.16571 25.1319 1.18813C27.2318 1.24043 29.4285 1.30021 31.7072 1.35252C40.844 1.56922 51.4106 1.74109 63.176 1.85318C74.9415 1.94285 87.8984 1.96527 101.816 1.89054C129.643 1.76351 161.269 1.17318 194.785 1.12088C203.163 1.1134 211.659 1.15077 220.245 1.23297H221.049C221.317 1.24792 221.622 1.22549 221.727 1.27032C221.876 1.31516 222.01 1.42725 222.084 1.56923C222.166 1.71121 222.159 1.83077 222.151 2.15208C222.144 3.22812 222.136 4.31163 222.129 5.39513C222.106 7.56215 222.092 9.72918 222.069 11.9037C222.01 16.2526 221.943 20.6166 221.883 24.9954C221.57 42.5109 221.012 60.2581 220.505 77.9903C220.26 86.8601 220.029 95.7299 219.858 104.562C219.783 108.979 219.716 113.387 219.642 117.789C219.619 119.986 219.597 122.182 219.575 124.379V125.201L219.567 125.403C219.567 125.44 219.567 125.478 219.552 125.515C219.537 125.59 219.508 125.657 219.463 125.724C219.374 125.851 219.24 125.941 219.091 125.964C219.038 125.978 218.897 125.978 218.755 125.978H218.346L215.077 126.046C197.66 126.375 180.495 126.606 163.823 126.756C147.15 126.905 130.969 126.965 115.517 126.957C100.066 126.98 85.3517 126.771 71.6129 126.658C64.7398 126.591 58.1199 126.531 51.7606 126.472C48.5809 126.442 45.4757 126.412 42.4376 126.382C40.9259 126.375 39.4143 126.345 37.925 126.352C36.4357 126.367 34.9687 126.404 33.5241 126.442C30.6349 126.524 27.835 126.621 25.117 126.569C23.732 126.516 22.3469 126.718 21.2523 126.352C20.6938 126.18 20.18 125.844 19.6811 125.47C19.4353 125.284 19.1896 125.082 18.9513 124.873C18.7428 124.663 18.5343 124.477 18.3779 124.237C17.6854 123.318 17.4322 122.108 17.3131 120.92C17.2014 119.717 17.2312 118.506 17.2238 117.288C17.2089 116.048 17.0972 114.882 17.0525 113.731C17.0078 112.573 16.9631 111.445 16.9184 110.331C16.7844 105.885 16.6802 101.783 16.5238 98.0987C16.3972 94.4073 16.3227 91.1119 16.2706 88.2425C16.1664 82.4962 16.1515 78.4535 16.1291 76.3612C16.0695 65.4514 15.9653 56.5368 15.7791 50.2524C15.6153 43.9681 15.6079 40.2991 15.4962 39.8208C15.3994 39.3501 15.1238 42.0925 15.0717 48.6533C15.0717 51.9337 15.0717 56.1557 15.0717 61.4088C15.0792 66.662 15.0717 72.9463 15.1462 80.3291C15.1685 82.3915 15.2058 86.4566 15.3398 92.2627C15.4068 95.162 15.5185 98.5097 15.6674 102.246C15.8015 105.982 15.8536 110.129 16.0993 114.658C16.1663 115.808 16.2483 116.907 16.2259 118.088C16.2259 119.261 16.2259 120.486 16.4195 121.749C16.6206 122.99 17.0301 124.364 18.0578 125.366C18.5567 125.851 19.0407 126.24 19.6215 126.629C20.1875 127.002 20.8651 127.316 21.5799 127.451C22.2948 127.578 22.9799 127.563 23.6426 127.555C24.3128 127.54 24.9532 127.555 25.6383 127.555C26.9935 127.57 28.3637 127.555 29.7562 127.525C32.5337 127.466 35.3857 127.338 38.3122 127.324C50.0404 127.428 63.0122 127.54 76.9595 127.667C83.9368 127.727 91.1599 127.794 98.599 127.862C106.038 127.877 113.693 127.884 121.527 127.899C137.202 127.884 153.606 127.794 170.487 127.615C178.932 127.503 187.495 127.391 196.141 127.279C200.467 127.204 204.816 127.129 209.179 127.055C211.361 127.01 213.55 126.972 215.74 126.927L219.038 126.86C219.433 126.845 219.82 126.666 220.081 126.375C220.349 126.098 220.483 125.657 220.468 125.313L220.483 123.662C220.617 106.012 221.094 88.1304 221.6 70.2712C222.114 52.412 222.62 34.5752 222.859 16.9999C222.903 12.6061 222.94 8.2272 222.985 3.87822V2.24922L223 1.83824C223 1.64396 222.963 1.45714 222.888 1.2778C222.739 0.926598 222.456 0.642642 222.106 0.493192C221.935 0.418467 221.734 0.381098 221.555 0.381098H221.153L220.342 0.37363L218.718 0.358681C216.559 0.343737 214.407 0.328797 212.262 0.30638C203.676 0.254073 195.187 0.261542 186.825 0.291432C153.398 0.463299 122.078 1.05363 94.8608 1.13583C67.6439 1.2778 44.5449 0.941536 27.5669 0.523077C25.4447 0.47077 23.4192 0.425937 21.4906 0.37363C20.5449 0.321322 19.4651 0.403521 18.5865 0.807035C17.6929 1.1956 16.911 1.78592 16.3525 2.51823C15.7866 3.24306 15.4143 4.07998 15.243 4.93185C15.1685 5.35778 15.1387 5.79118 15.1462 6.1947C15.1462 6.59074 15.1611 6.97182 15.1685 7.35292C15.1909 8.86983 15.2132 10.2821 15.2281 11.5823C15.2802 16.7832 15.3174 20.1906 15.3323 21.5581C15.3696 27.6781 15.3919 32.2139 15.4068 35.2327C15.4217 36.7422 15.4291 37.8631 15.4366 38.6178C15.4515 39.365 15.4738 39.7461 15.5111 39.7536C15.5483 39.7611 15.593 39.3949 15.6451 38.6701C15.6972 37.9452 15.7568 36.8543 15.8089 35.4046C15.9132 32.5053 15.9876 28.1787 15.9727 22.4698V22.4847Z" fill="#121C2D"/>
<path d="M209.604 6.18721C204.987 6.24699 185.812 6.64303 159.392 6.8149C132.972 7.00171 99.3064 6.8971 65.7302 6.44875C57.338 6.35161 48.9458 6.12744 40.6802 5.97051C38.6101 5.93315 36.5548 5.86589 34.4996 5.85842C32.4444 5.85842 30.404 5.85842 28.3711 5.85842C26.3383 5.85842 24.3203 5.85842 22.3097 5.85842H21.5576H21.1853H20.9023L20.7534 5.87337C20.5449 5.88831 20.3438 5.98545 20.1726 6.10501C20.0162 6.23204 19.897 6.38149 19.8151 6.52347C19.6513 6.8149 19.5694 7.09885 19.5098 7.36786C19.3013 8.45137 19.346 9.46015 19.3758 10.4689C19.4205 11.4702 19.5024 12.4641 19.5545 13.4355C19.5843 13.9287 19.5917 14.392 19.5843 14.8777V16.3498C19.5843 18.3076 19.5843 20.2429 19.5917 22.1634C19.5917 26.0042 19.6215 29.7704 19.5396 33.4543C19.4354 40.8296 19.5992 47.8388 19.5545 54.3772C19.1449 80.5683 19.6215 99.3466 19.6662 103.329C19.8524 113.701 20.2619 120.232 20.5225 120.666C20.7906 121.099 20.8874 115.442 20.6417 101.424C20.5821 97.5009 20.1651 78.4311 20.5374 51.8291C20.5225 45.1711 20.3885 38.0648 20.5374 30.6073C20.5672 26.8785 20.5374 23.0526 20.5374 19.1594C20.5374 18.188 20.5374 17.2091 20.5374 16.2228V14.7432C20.5374 14.2276 20.5225 13.7195 20.4928 13.2263C20.4332 12.2324 20.3513 11.2386 20.314 10.2597C20.2843 9.28829 20.2545 8.27203 20.4704 7.40523C20.5225 7.196 20.6044 7.00918 20.6938 6.89709C20.7385 6.84479 20.7757 6.8149 20.813 6.79996C20.8278 6.79996 20.8502 6.78501 20.8725 6.78501H20.9098H21.0066H22.5182C23.5235 6.78501 24.5362 6.78501 25.5564 6.78501C27.5893 6.78501 29.6296 6.78501 31.6848 6.78501C35.7878 6.74765 39.943 6.88962 44.1205 6.95687C52.4754 7.1138 60.9421 7.31556 69.3938 7.38281C103.216 7.77885 136.874 7.81621 162.721 7.56214C188.567 7.3305 206.61 6.8971 209.209 6.84479C220.788 6.53095 220.431 6.0303 209.626 6.19469L209.604 6.18721Z" fill="#121C2D"/>
<path d="M217.445 14.4667C217.415 16.7608 217.356 22.679 217.169 31.3097C216.991 39.9404 216.656 51.2761 216.283 64.4127C215.874 77.5568 215.695 92.5018 215.434 108.336C215.405 110.316 215.367 112.311 215.338 114.314C215.323 115.315 215.308 116.324 215.293 117.333C215.263 118.342 215.315 119.365 215.07 120.232C214.95 120.673 214.742 120.972 214.399 121.121C214.049 121.278 213.573 121.316 213.089 121.323C212.106 121.323 211.071 121.263 210.036 121.278C207.995 121.316 205.948 121.353 203.892 121.39C195.671 121.525 187.346 121.659 179.021 121.794C145.728 122.265 112.509 122.339 86.6325 122.175C60.7559 122.018 42.2216 121.682 38.2824 121.622C17.8046 121.248 12.4133 122.16 40.1291 122.661C44.0013 122.713 62.8633 123.042 89.1494 123.169C115.428 123.311 149.131 123.169 182.662 122.638C191.047 122.489 199.417 122.332 207.66 122.182C208.688 122.168 209.73 122.13 210.736 122.13C211.756 122.123 212.754 122.235 213.856 122.13C214.392 122.078 215.07 121.876 215.479 121.338C215.874 120.815 215.971 120.24 216.052 119.702C216.172 118.618 216.127 117.617 216.157 116.601C216.216 112.543 216.276 108.538 216.335 104.585C216.455 96.6939 216.566 89.042 216.671 81.7638C216.797 74.4856 216.983 67.5736 217.155 61.1473C217.505 48.2946 217.795 37.3773 217.929 29.3519C218.07 21.3264 218.1 16.1929 218.1 14.9001C218.093 3.37008 217.579 3.72129 217.46 14.4667H217.445Z" fill="#121C2D"/>
<path d="M217.795 6.32919H20.3364V13.7867H217.795V6.32919Z" fill="#121C2D"/>
<path d="M24.1341 11.3731C24.8579 11.3731 25.4447 10.7843 25.4447 10.058C25.4447 9.33162 24.8579 8.7428 24.1341 8.7428C23.4103 8.7428 22.8235 9.33162 22.8235 10.058C22.8235 10.7843 23.4103 11.3731 24.1341 11.3731Z" fill="white"/>
<path d="M28.9669 11.3731C29.6907 11.3731 30.2774 10.7843 30.2774 10.058C30.2774 9.33162 29.6907 8.7428 28.9669 8.7428C28.243 8.7428 27.6563 9.33162 27.6563 10.058C27.6563 10.7843 28.243 11.3731 28.9669 11.3731Z" fill="white"/>
<path d="M33.8071 11.3731C34.5309 11.3731 35.1177 10.7843 35.1177 10.058C35.1177 9.33162 34.5309 8.7428 33.8071 8.7428C33.0833 8.7428 32.4965 9.33162 32.4965 10.058C32.4965 10.7843 33.0833 11.3731 33.8071 11.3731Z" fill="white"/>
<mask id="mask0_4_939" style="mask-type:luminance" maskUnits="userSpaceOnUse" x="0" y="0" width="182" height="123">
<path d="M181.032 122.422L0 122.003V0H181.032V122.422Z" fill="white"/>
</mask>
<g mask="url(#mask0_4_939)">
<path d="M106.179 86.1502L110.417 71.7881C111.928 73.9028 113.246 77.4074 116.679 75.5692C117.692 75.0311 119.069 73.036 119.658 72.0496C122.279 67.6633 121.46 67.073 126.024 64.8088C127.447 64.0989 131.982 61.7899 133.151 60.7139C134.32 59.6379 135.265 56.5965 134.692 55.117C134.104 53.6001 133.806 52.6735 133.694 51.052C133.605 49.6695 134.811 48.586 135.906 47.7417C136.263 47.4652 136.159 48.1825 136.613 48.2049C137.254 48.2348 137.693 48.2946 138.155 48.7504C139.465 50.0282 142.131 49.6471 143.754 48.8028C145.378 47.9584 145.549 46.3742 146.242 44.6705C146.547 43.9157 145.974 42.6529 146.472 42.0103C147.426 40.7698 150.255 42.2942 151.745 41.8384C155.609 40.6652 160.085 38.8644 162.229 35.4345C164.374 32.0046 164.158 26.1014 161.507 23.0376C159.75 21.0051 156.421 19.4135 155.11 17.0597C153.591 14.3397 155.453 9.75905 152.824 8.10016C147.083 4.47601 146.07 9.28828 142.816 7.56214C142.005 7.12874 141.893 4.11734 138.907 3.58679C136.315 3.1235 134.7 4.57316 132.071 4.49843C128.251 4.40129 126.62 0.448354 123.485 2.64526C120.7 4.59558 118.541 10.2074 119.62 13.443C120.305 15.5054 121.154 17.5977 121.02 19.7647C120.886 21.9317 119.367 24.2108 117.2 24.3229C116.374 21.5207 112.896 19.8618 110.208 20.9827C108.54 21.6777 107.319 23.202 105.636 23.882C100.669 25.8697 94.481 19.6003 90.3259 25.6455C89.4547 26.9159 88.9334 28.4029 88.7919 29.9422C88.1217 37.3773 83.1847 43.161 80.1466 49.7368C77.7488 54.9302 76.535 60.6765 76.6392 66.4004C76.669 68.0743 76.6839 70.6747 77.4733 72.1468C80.1912 77.228 89.1494 75.0909 88.9781 75.5692C87.3622 80.2469 88.0473 84.6781 84.9868 88.5638C83.9666 89.8565 82.6709 92.4943 82.0082 94.0038C80.3104 97.8745 77.8158 107.492 81.7773 108.949C103.804 117.034 107.311 88.0781 106.179 86.1427V86.1502Z" fill="white"/>
<path d="M117.692 23.8372C118.057 23.2021 118.734 22.8209 119.382 22.4772C119.948 22.1783 120.544 21.8719 121.184 21.8196C121.973 21.7524 122.733 22.0737 123.448 22.395C127.171 24.0838 130.82 26.2658 133.203 29.5985C133.866 30.5251 134.424 31.5339 134.908 32.5651C136.703 36.3611 137.626 40.598 137.38 44.79C137.313 45.9707 137.142 47.1663 136.606 48.2199C136.07 49.2735 135.109 50.1627 133.955 50.357C133.627 50.4093 133.247 50.4019 133.002 50.1702C132.838 50.0208 132.756 49.7966 132.689 49.5874C131.215 45.074 131.9 40.1945 132.041 35.4494C132.056 34.8591 132.063 34.2538 131.862 33.7009C131.319 32.1914 129.554 31.6011 128.035 31.093C126.136 30.4503 116.121 26.5871 117.684 23.8447L117.692 23.8372Z" fill="#F2BE5A"/>
<path d="M102.166 72.7147C101.689 72.9239 100.475 73.5217 98.5915 74.0747C96.7075 74.6127 94.1534 75.0984 91.1599 75.1582C88.1664 75.2553 84.741 74.919 81.1965 74.239C80.3327 74.0597 79.4764 73.8131 78.8434 73.2901C78.2105 72.7745 77.8009 71.9749 77.5403 71.1081C77.0563 69.3371 76.818 67.4242 76.8031 65.5336C76.7584 61.7301 77.6147 57.964 78.7764 54.564C79.9455 51.1491 81.4497 48.0854 82.8049 45.4252C84.1974 42.7725 85.3963 40.4934 86.2899 38.7747C87.1835 37.0485 87.7494 35.8679 87.9505 35.4569C88.9855 33.3048 89.3132 31.7954 89.127 31.616C88.9185 31.4218 88.2483 32.5352 86.8558 35.4046C86.6622 35.8081 86.0888 36.9888 85.1878 38.7299C84.2868 40.4784 83.0507 42.7799 81.6656 45.4999C80.2955 48.2274 78.7838 51.4032 77.6445 54.9526C76.5127 58.4945 75.7457 62.4325 75.9169 66.3929C75.9467 66.8861 75.984 67.3793 76.0286 67.8725C76.1031 68.3582 76.1403 68.8514 76.2371 69.3371C76.4159 70.3011 76.5946 71.28 77.019 72.2215C77.4062 73.1556 78.1583 74.0373 79.104 74.4632C80.0274 74.9116 80.9806 75.061 81.8816 75.2179C85.4931 75.8531 88.9409 76.0698 91.9343 75.9054C93.4311 75.8307 94.8087 75.6364 96.0299 75.4272C97.2511 75.1806 98.3234 74.9116 99.217 74.6127C101.004 74.0373 102.076 73.4694 102.345 73.3349C103.543 72.7072 104.013 72.214 103.946 72.1094C103.864 71.9749 103.26 72.1991 102.158 72.7147H102.166Z" fill="#121C2D"/>
<path d="M109.583 68.4927C110.26 68.2461 111.548 67.8053 113.067 66.7442C114.579 65.698 116.336 64.0018 117.573 61.4611C118.168 60.1983 118.69 58.7038 118.6 57.0225C118.556 56.1856 118.332 55.3262 117.87 54.5416C117.416 53.7495 116.672 53.0994 115.763 52.7407C114.855 52.3821 113.797 52.412 112.866 52.7407C111.928 53.0546 111.072 53.6001 110.32 54.2651C108.793 55.6251 107.847 57.4633 106.529 58.9952C106.314 59.2642 105.926 59.3016 105.651 59.0924C105.517 58.9952 105.435 58.8532 105.412 58.6888C105.39 58.5618 105.435 58.2405 105.472 58.0088C105.643 56.9926 106.016 55.9913 106.336 54.8928C106.634 53.7944 106.842 52.5988 106.567 51.3583C106.418 50.7456 106.112 50.1403 105.636 49.677C105.159 49.2137 104.608 48.9298 104.117 48.6458C103.112 48.1377 102.456 47.3008 102.263 46.2098C102.062 45.1338 102.225 43.9531 102.508 42.8098C103.089 40.583 104.266 38.005 103.327 35.3149C103.074 34.6648 102.62 34.067 102.047 33.6486C101.466 33.2226 100.796 32.9985 100.148 32.8565C98.8447 32.6024 97.616 32.4679 96.3352 32.2587C95.0693 32.0719 93.7885 31.8851 92.5077 31.6982C91.8673 31.6011 91.2269 31.5114 90.5791 31.4143L89.611 31.2723L89.3728 31.235C89.3206 31.2275 89.2759 31.2125 89.2313 31.1976C89.1419 31.1677 89.06 31.1079 88.993 31.0332C88.8589 30.8912 88.7994 30.6895 88.8366 30.5101C88.844 30.4429 88.9185 30.2635 88.9706 30.1216L89.1494 29.6807C89.4025 29.0978 89.6929 28.515 89.9983 27.9396L90.9365 26.206C91.2418 25.6157 91.5546 25.1075 91.9567 24.6293C92.3513 24.151 92.8279 23.7625 93.3492 23.4337C93.5949 23.2543 93.8853 23.1647 94.1534 23.0152C94.4438 22.9405 94.7193 22.8135 95.0172 22.7911C95.6055 22.679 96.2235 22.7387 96.8341 22.8284C97.4447 22.9555 98.0628 23.1198 98.6734 23.344C99.9021 23.7625 101.161 24.2855 102.553 24.4798C103.246 24.5546 103.983 24.562 104.683 24.3902C105.383 24.2258 106.023 23.9418 106.626 23.6205C107.825 22.9853 108.89 22.2007 110.029 21.73C111.161 21.2368 112.375 21.1994 113.455 21.715C114.534 22.2157 115.443 23.1124 116.292 24.0539C117.141 24.9954 117.967 26.0192 118.928 26.9233C120.834 28.7242 123.046 30.144 125.406 31.1079C126.575 31.5936 127.834 31.9523 128.996 32.2363C129.569 32.3932 130.105 32.58 130.53 32.8789C130.954 33.1703 131.267 33.5888 131.453 34.0745C131.833 35.0609 131.743 36.249 131.609 37.3848C131.453 38.543 131.289 39.7237 131.192 40.8894C130.984 43.2208 130.999 45.5672 131.55 47.779C132.108 50.0058 133.158 51.8964 133.784 53.8018C134.104 54.7509 134.335 55.6924 134.342 56.6115C134.364 57.5306 134.119 58.3974 133.672 59.1447C132.793 60.6541 131.282 61.7301 129.792 62.3578C128.176 62.978 126.665 63.8 125.377 64.6967C124.088 65.6009 122.986 66.5947 122.055 67.5886C120.194 69.5762 119.047 71.6087 118.317 73.1705C117.96 73.9327 117.602 74.5006 117.238 74.8369C116.873 75.1806 116.523 75.3226 116.269 75.4048C114.914 75.8232 113.544 75.2254 112.725 74.396C111.861 73.5591 111.385 72.5578 111.057 71.7134C110.431 69.9947 110.193 68.8963 110.022 68.7916C109.895 68.6796 109.836 69.5015 110.253 71.4668C110.491 72.4233 110.878 73.7534 112.032 75.0162C112.598 75.6364 113.425 76.2118 114.46 76.4434C115.473 76.6751 116.753 76.563 117.766 75.7186C118.042 75.4944 118.407 75.0984 118.727 74.5454C119.069 73.9925 119.345 73.2975 119.74 72.5652C120.514 71.0707 121.75 69.2101 123.656 67.3943C124.61 66.4826 125.734 65.6009 127.037 64.8163C127.685 64.4128 128.385 64.0616 129.122 63.7253C129.837 63.4189 130.708 63.1051 131.49 62.6194C131.885 62.3802 132.272 62.1112 132.637 61.8123C133.009 61.5134 133.329 61.1548 133.687 60.8185C134.32 60.0712 134.878 59.1746 135.131 58.1434C135.4 57.1122 135.34 56.0137 135.109 54.99C134.878 53.9588 134.513 52.9649 134.111 51.9935C133.307 50.0357 132.406 48.1227 132.168 45.9632C131.885 43.8111 132.034 41.5395 132.317 39.2305C132.443 38.0797 132.689 36.8991 132.659 35.6138C132.644 34.9787 132.547 34.3136 132.294 33.6785C132.034 33.0433 131.572 32.453 130.976 32.0719C130.388 31.6833 129.748 31.489 129.144 31.3246C128.526 31.1677 127.953 31.0257 127.372 30.8464C126.211 30.4877 125.079 30.0244 123.984 29.4416C121.795 28.2908 119.807 26.7216 118.139 24.7937C117.29 23.8297 116.448 22.7985 115.398 21.9242C114.371 21.05 112.978 20.3476 111.504 20.4596C110.029 20.5568 108.793 21.304 107.669 21.9766C106.537 22.664 105.435 23.3664 104.236 23.5757C103.037 23.7998 101.779 23.4785 100.55 23.0675C99.3064 22.6565 98.0554 22.1111 96.648 21.9242C95.9555 21.8122 95.2182 21.8495 94.5108 21.999C94.1608 22.1036 93.8109 22.1858 93.4907 22.3651C93.3268 22.4473 93.163 22.5146 93.0066 22.6042L92.5673 22.9031C91.3684 23.6803 90.5567 24.9655 89.9759 26.1238C89.343 27.2895 88.6877 28.4552 88.1813 29.7255C88.1143 29.8974 88.0622 30.0169 87.9951 30.2336C87.9281 30.4578 87.9207 30.6969 87.9728 30.9286C88.0696 31.3844 88.3824 31.7804 88.7994 31.9673C89.0079 32.0719 89.2611 32.1018 89.3951 32.1167L89.8791 32.184L90.8472 32.3259C93.4385 32.6996 96.0076 33.0732 98.5394 33.4468C99.7978 33.6261 101.049 33.8055 101.846 34.6125C102.657 35.3897 102.873 36.6301 102.799 37.8033C102.732 38.9989 102.412 40.172 102.032 41.3377C101.667 42.5333 101.354 43.7513 101.317 45.0291C101.302 45.6643 101.362 46.3144 101.57 46.9421C101.771 47.5698 102.129 48.1601 102.613 48.601C103.603 49.4977 104.809 49.7518 105.338 50.6186C105.919 51.448 105.934 52.5838 105.762 53.63C105.599 54.6911 105.182 55.7073 104.891 56.7983C104.75 57.3363 104.631 57.8893 104.578 58.4572C104.534 58.8009 104.646 59.2044 104.884 59.4809C105.115 59.7723 105.457 59.9442 105.807 59.9891C106.165 60.0414 106.544 59.9293 106.827 59.7126C107.125 59.4585 107.229 59.2792 107.416 59.0625C107.743 58.644 108.049 58.2255 108.346 57.8071C108.942 56.9776 109.501 56.1557 110.134 55.4533C110.759 54.7583 111.489 54.168 112.271 53.7645C113.053 53.3535 113.901 53.1443 114.698 53.2339C115.488 53.3236 116.225 53.7196 116.739 54.2876C117.26 54.8555 117.565 55.5803 117.722 56.3051C117.87 57.0374 117.856 57.7772 117.744 58.4796C117.506 59.8919 116.925 61.1473 116.307 62.2084C115.026 64.338 113.417 65.6831 112.159 66.4901C110.886 67.3046 109.933 67.6184 109.56 67.7754C107.87 68.4031 106.574 68.8813 105.785 69.3446C104.988 69.8004 104.668 70.1292 104.698 70.1815C104.742 70.2488 105.13 70.047 105.919 69.7257C106.701 69.3894 107.915 69.0233 109.538 68.4628L109.583 68.4927Z" fill="#121C2D"/>
<path d="M85.5676 61.4761C85.4559 61.2967 84.8974 60.6242 84.3166 59.578C84.0262 59.0624 83.7283 58.4422 83.49 57.7772C83.4379 57.6203 83.4081 57.4858 83.4156 57.3961C83.4156 57.3139 83.4602 57.2093 83.5496 57.0673C83.7581 56.746 83.9666 56.4172 84.1751 56.0959C85.8803 53.4282 87.0569 50.4766 87.176 50.1254C87.5186 49.2063 86.6548 48.6458 86.208 49.8414C86.0889 50.1777 84.9644 53.1143 83.3262 55.7671C83.1251 56.1183 82.9241 56.3798 82.7007 56.8132C82.589 57.0299 82.5294 57.3587 82.5816 57.6128C82.6188 57.8668 82.7081 58.0686 82.7826 58.2405C83.073 58.9429 83.4156 59.5706 83.7432 60.1011C84.3985 61.1548 84.9942 61.7824 85.0761 61.8721C85.4857 62.2457 85.8431 61.8796 85.575 61.4686L85.5676 61.4761Z" fill="#121C2D"/>
<path d="M101.362 49.5052C101.362 49.3632 101.317 48.743 100.989 47.9434C100.662 47.1513 99.9914 46.2098 99.0606 45.612C98.1522 44.9843 97.0948 44.6854 96.2831 44.5434C95.464 44.4015 94.8757 44.4015 94.7566 44.394C94.0938 44.394 93.9896 45.3953 94.7863 45.4028C94.898 45.4028 95.4491 45.4028 96.1937 45.5149C96.9384 45.6269 97.8766 45.896 98.6585 46.4116C99.4553 46.9122 100.029 47.6819 100.327 48.3395C100.624 49.0045 100.699 49.5276 100.729 49.5948C100.848 49.9087 101.354 49.8564 101.362 49.5052Z" fill="#121C2D"/>
<path d="M81.688 41.2032C81.8369 41.0762 83.3262 40.4635 84.9123 40.6652C86.5058 40.8147 87.8239 41.7263 87.9579 41.816C88.3526 42.0925 87.8313 42.9518 87.3696 42.6305C87.243 42.5483 86.0814 41.7114 84.7261 41.5395C83.3783 41.3228 82.0231 41.7861 81.9262 41.8085C81.6805 41.8309 81.4869 41.3602 81.6954 41.2107L81.688 41.2032Z" fill="#121C2D"/>
<path d="M88.4568 66.4303C88.3824 66.4826 88.1813 66.7815 87.7718 67.0505C87.3697 67.3195 86.759 67.5512 86.1335 67.5661C84.8602 67.6259 83.6464 66.9235 83.5198 66.8637C83.1698 66.6769 82.5443 67.484 83.1028 67.7829C83.2443 67.8352 84.6591 68.6198 86.2825 68.4479C87.0792 68.3657 87.8239 68.022 88.293 67.6259C88.777 67.2374 88.9781 66.8338 89.0004 66.7815C89.0898 66.5051 88.6207 66.3033 88.4643 66.4303H88.4568Z" fill="#121C2D"/>
<path d="M84.3538 47.2858C85.0653 47.2858 85.6421 46.7071 85.6421 45.9931C85.6421 45.2791 85.0653 44.7004 84.3538 44.7004C83.6423 44.7004 83.0656 45.2791 83.0656 45.9931C83.0656 46.7071 83.6423 47.2858 84.3538 47.2858Z" fill="#121C2D"/>
<path d="M95.5086 51.9188C96.2201 51.9188 96.7969 51.34 96.7969 50.626C96.7969 49.9121 96.2201 49.3333 95.5086 49.3333C94.7972 49.3333 94.2204 49.9121 94.2204 50.626C94.2204 51.34 94.7972 51.9188 95.5086 51.9188Z" fill="#121C2D"/>
<path d="M106.567 85.8214C106.716 85.388 107.438 82.13 108.272 78.9243C109.098 75.7111 110.037 72.5503 110.148 72.1767C110.439 71.1978 109.545 70.6523 109.158 71.9824C109.046 72.356 108.13 75.614 107.371 78.8869C106.596 82.1524 105.971 85.4104 105.949 85.672C105.896 86.2473 106.395 86.3295 106.574 85.8214H106.567Z" fill="#121C2D"/>
<path d="M137.254 48.6159C137.641 48.87 138.378 49.3109 139.517 49.5649C140.634 49.7966 142.258 49.8115 143.807 48.8476C145.311 47.8986 146.606 46.0379 146.74 43.714C146.755 43.43 146.755 43.1311 146.718 42.8397L146.696 42.6155L146.681 42.5035C146.681 42.5035 146.681 42.4736 146.681 42.4586C146.681 42.3988 146.696 42.3316 146.733 42.2793C146.77 42.227 146.822 42.1896 146.875 42.1672C146.949 42.1523 146.949 42.1448 147.135 42.1672C147.426 42.2046 147.723 42.2419 148.021 42.2643C149.22 42.3764 150.486 42.3615 151.782 42.227C154.358 41.9355 157.128 41.0388 159.459 39.1931C161.753 37.3699 163.637 34.6499 164.106 31.4442C164.597 28.2385 163.473 24.8684 161.477 22.268C160.487 20.9454 159.295 19.7722 157.947 18.8008C157.307 18.3001 156.495 17.8816 155.952 17.4632C155.684 17.239 155.527 17.0148 155.483 16.7309C155.438 16.4395 155.498 16.0285 155.52 15.61C155.617 13.9511 155.49 12.2324 154.894 10.6259C154.314 9.01928 153.167 7.58457 151.655 6.75513C150.903 6.33667 150.047 6.07513 149.168 6.05271C148.289 6.02283 147.463 6.22458 146.696 6.4637C145.929 6.70282 145.207 6.97183 144.492 7.13622C144.149 7.21095 143.754 7.28567 143.457 7.28567C143.308 7.28567 143.196 7.25578 143.136 7.21842C143.077 7.18106 143.032 7.12874 142.98 7.00171C142.883 6.76259 142.794 6.28436 142.6 5.90327C142.422 5.5147 142.183 5.15601 141.908 4.84217C141.349 4.21448 140.664 3.74371 139.927 3.42987C138.438 2.77229 136.807 2.83208 135.377 3.10856C134.655 3.25053 133.962 3.45229 133.292 3.68394C132.622 3.90812 132.004 4.16964 131.423 4.25931C130.835 4.35646 130.351 4.25185 129.889 3.91559C129.42 3.59427 128.996 3.10856 128.467 2.67515C127.923 2.24175 127.268 1.91296 126.605 1.77846C125.935 1.63648 125.265 1.6589 124.639 1.77846C123.381 2.01758 122.301 2.63032 121.46 3.39252C120.603 4.16218 120.022 5.14106 119.68 6.06765C119.315 7.00171 119.136 7.92083 119.054 8.76522C118.891 10.4615 119.032 11.8588 119.151 12.9199C119.278 13.981 119.397 14.7133 119.457 15.0944C120.067 19.0772 120.998 21.4909 121.288 21.5805C121.594 21.6627 121.139 19.5555 120.343 14.2276C120.291 13.854 120.171 13.1217 120.075 12.083C119.985 11.0443 119.888 9.68433 120.149 8.12258C120.417 6.59072 121.065 4.74503 122.755 3.62416C123.574 3.06372 124.587 2.66768 125.652 2.66768C126.181 2.66768 126.717 2.77229 127.193 3.01141C127.677 3.24306 128.094 3.61668 128.564 4.0725C129.033 4.50591 129.621 5.03646 130.433 5.20085C131.237 5.35778 131.996 5.14855 132.659 4.93184C133.955 4.46108 135.236 4.0202 136.606 3.90064C137.961 3.76613 139.361 4.01272 140.485 4.81975C141.036 5.21579 141.506 5.7314 141.774 6.34414C141.848 6.49359 141.893 6.65051 141.945 6.82238C141.997 7.00172 142.042 7.21095 142.153 7.4426C142.258 7.67424 142.481 7.94325 142.764 8.07028C143.04 8.19731 143.308 8.21226 143.539 8.21226C145.266 8.0927 146.681 7.29315 148.155 7.04656C149.6 6.75513 151.097 7.25578 152.229 8.25709C153.383 9.24346 154.098 10.6707 154.418 12.1951C154.582 12.9573 154.656 13.7494 154.664 14.5414C154.664 14.9375 154.656 15.3335 154.626 15.737C154.611 16.1256 154.522 16.5814 154.664 17.112C154.82 17.65 155.215 18.0311 155.572 18.2852C155.944 18.5467 156.294 18.7335 156.622 18.9577C157.3 19.3761 157.925 19.8693 158.528 20.3775C159.72 21.4236 160.77 22.6267 161.589 23.9568C162.393 25.2943 162.996 26.744 163.234 28.246C163.473 29.7479 163.406 31.2723 162.981 32.6921C162.147 35.5466 160.152 37.8855 157.851 39.3501C155.52 40.8221 152.884 41.4498 150.449 41.5544C149.838 41.5769 149.235 41.5843 148.654 41.547C148.364 41.5395 148.073 41.5021 147.783 41.4872L147.359 41.4349L147.15 41.4125C147.083 41.405 146.942 41.3901 146.837 41.4125C146.383 41.4648 146.018 41.8384 145.951 42.2718C145.936 42.3764 145.929 42.4885 145.951 42.5931L145.974 42.8024C145.988 42.9294 146.011 43.0564 146.011 43.1835C146.041 43.6991 145.981 44.1997 145.877 44.678C145.437 46.6058 144.134 48.0181 142.809 48.5861C141.468 49.1764 140.188 49.0419 139.331 48.8252C138.453 48.601 137.954 48.2722 137.738 48.1676C136.829 47.6146 136.286 47.0243 135.943 46.6208C135.601 46.2098 135.444 45.9782 135.37 46.0155C135.31 46.0379 135.34 46.3294 135.593 46.8225C135.839 47.3157 136.345 48.0107 137.261 48.6234L137.254 48.6159Z" fill="#121C2D"/>
<path d="M28.9817 86.8825C23.2256 81.4799 16.1291 73.9327 10.373 68.5376C8.66771 66.9385 6.94758 64.5547 5.87528 63.4339C3.54453 61.0203 5.85295 56.9403 8.08689 54.4295C10.3208 51.9188 16.0993 49.8937 19.0779 48.3395C28.4903 43.43 37.6048 39.9404 47.1884 35.3747C50.5468 33.7756 52.5424 32.6398 56.1912 31.9299C59.423 31.2947 63.0047 31.2275 66.3035 31.3097C71.7618 31.4442 77.2871 31.4218 82.7528 31.5563C88.3377 31.6982 92.5003 31.3172 98.0777 31.4517C98.4649 31.4591 98.7181 31.4068 98.9862 31.6833C99.5149 32.2213 99.2096 32.3334 98.5766 32.7519C97.1245 33.7233 95.2555 33.6486 93.513 33.7905C84.3985 34.5453 81.6507 36.5105 77.1233 39.7312C78.7541 41.0762 80.9582 42.3166 82.589 43.6617C82.2614 44.4239 81.7997 45.1487 81.7997 45.1487C76.6244 45.5447 69.1406 46.2472 60.7187 42.2344C60.19 41.9804 59.6017 41.7413 59.0283 41.8533C58.5741 41.9355 58.1794 42.212 57.8294 42.5184C49.8617 49.4006 42.1992 55.513 32.8762 62.1561C37.0463 64.3231 41.2833 67.0132 43.7258 71.0408C44.0311 71.549 44.3289 72.0945 44.3289 72.6848C44.3289 73.2452 44.0609 73.7683 43.7779 74.254C40.3302 80.2843 28.9743 86.875 28.9743 86.875L28.9817 86.8825Z" fill="white"/>
<path d="M99.2617 31.9448H103.208C103.365 31.9448 103.543 31.9448 103.648 32.0644C103.752 32.1765 103.752 32.3409 103.737 32.4903C103.551 34.0072 102.054 35.016 100.602 35.4494C99.1649 35.8828 97.6458 35.965 96.1491 36.0472C91.8003 36.2864 85.4633 36.518 81.1071 36.7571" fill="white"/>
<path d="M81.8816 37.0411C82.7454 37.056 89.0228 36.8094 95.2704 36.5479C96.8267 36.4806 98.4128 36.4358 99.917 36.122C101.414 35.8231 102.866 35.1356 103.685 33.9624C103.886 33.671 104.042 33.3571 104.132 33.0283C104.184 32.864 104.206 32.722 104.236 32.5277C104.266 32.2662 104.228 31.9971 104.08 31.8029C103.819 31.3695 103.112 31.4442 103.007 31.4442C102.784 31.4442 102.568 31.4442 102.374 31.4442C101.592 31.4442 101.064 31.4442 100.878 31.4442C98.9564 31.4442 98.45 32.453 101.056 32.453C101.235 32.453 101.771 32.453 102.568 32.453C102.769 32.453 102.985 32.453 103.216 32.453C103.275 32.453 103.238 32.453 103.253 32.453L103.223 32.6099C103.201 32.722 103.171 32.8266 103.126 32.9387C103.052 33.1554 102.918 33.3721 102.754 33.5813C102.434 33.9998 101.942 34.3659 101.369 34.6499C100.803 34.9413 100.14 35.1281 99.433 35.2701C98.0256 35.5466 96.4469 35.5989 94.8757 35.6885C88.5909 36.0248 82.3656 36.3611 81.8816 36.4134C80.8093 36.5255 80.8689 37.0336 81.8816 37.056V37.0411Z" fill="#121C2D"/>
<path d="M24.7074 82.3841C23.8213 81.5247 21.5129 79.3203 18.2216 76.0399C16.5759 74.396 14.6845 72.483 12.6069 70.3235C11.5718 69.24 10.4921 68.0967 9.36024 66.9086C8.25816 65.698 6.99226 64.5099 6.11357 63.0602C5.68167 62.3354 5.35402 61.5358 5.30189 60.6989C5.23488 59.862 5.44338 59.0027 5.8157 58.1882C6.57525 56.5517 7.8635 55.1021 9.36024 53.884C12.3984 51.4405 16.3078 49.946 20.1725 48.1452C27.9392 44.6256 36.1453 40.9043 44.3438 37.183C46.3916 36.2565 48.4394 35.3299 50.4797 34.4033C52.5126 33.4917 54.5604 32.6323 56.6678 32.1391C58.7677 31.6235 60.9346 31.6086 63.1015 31.6833C65.2759 31.7506 67.4279 31.8178 69.5502 31.8851C78.0392 32.1092 86.0293 32.0868 93.029 31.9374C94.7789 31.8925 96.4618 31.8477 98.0852 31.8029C98.2415 31.8029 98.3904 31.7954 98.5394 31.7879V31.7954L98.4798 31.8776C98.0628 32.4007 97.482 32.7818 96.8639 33.0433C95.6278 33.5589 94.2428 33.544 92.9471 33.5514C91.6365 33.5365 90.3706 33.6486 89.2313 33.7905C86.9452 34.1268 85.0985 34.7171 83.7134 35.2552C82.3284 35.7932 81.405 36.3013 80.9284 36.5554C78.4488 37.9153 76.6914 39.4622 75.6042 40.6578C74.517 41.8683 74.0404 42.6977 74.0553 42.8547C74.0628 42.9369 74.2117 42.8696 74.4947 42.6305C74.7776 42.3914 75.1946 41.9804 75.8053 41.4349C76.4159 40.8819 77.2201 40.1945 78.27 39.4248C79.32 38.6476 80.638 37.7958 82.2837 36.9813C82.7528 36.7646 83.6538 36.3162 85.0166 35.8455C86.3718 35.3672 88.1962 34.8741 90.4302 34.6574C90.9886 34.5976 91.5695 34.5826 92.1801 34.5527C92.7981 34.5453 93.446 34.5378 94.1087 34.5303C94.7864 34.5079 95.5087 34.4481 96.2384 34.2763C96.9831 34.1044 97.7203 33.798 98.3905 33.3048C98.7255 33.0582 99.0383 32.7668 99.2989 32.4156C99.5 32.1466 99.6936 31.7879 99.8127 31.489L100.006 31.0033L100.058 30.8763C100.058 30.8763 100.081 30.8314 100.081 30.8165H100.021L99.7755 30.7941C99.6042 30.7941 99.4553 30.7642 99.2617 30.7717L98.6734 30.7941C98.4426 30.7941 98.2192 30.809 97.9883 30.8165C97.5862 30.8314 97.1841 30.8389 96.7746 30.8539C95.1363 30.8987 93.4236 30.9361 91.6514 30.9809C84.5623 31.1229 76.468 31.1303 67.8896 30.8912C65.7376 30.8464 63.5856 30.7268 61.3516 30.7119C60.2346 30.7119 59.1102 30.7717 57.9784 30.9361C56.8539 31.1079 55.737 31.3844 54.6572 31.7431C52.4903 32.4455 50.4351 33.4169 48.3798 34.351C46.3246 35.285 44.2619 36.2266 42.1992 37.1681C33.956 40.9268 25.7276 44.6779 17.9907 48.2049C16.0621 49.0867 14.1334 49.9386 12.3165 50.9474C10.507 51.9561 8.7943 53.1293 7.38691 54.579C6.68694 55.3038 6.08378 56.1108 5.56253 56.9552C5.06361 57.8146 4.66895 58.7486 4.5498 59.7499C4.42321 60.7512 4.63171 61.76 5.02638 62.6268C5.42104 63.4937 5.97208 64.2409 6.53801 64.9209C11.2442 70.0769 15.4068 74.2167 18.4896 77.2654C21.5799 80.2993 23.6054 82.1972 24.1117 82.668C28.6913 86.875 28.8998 86.3669 24.7223 82.3617L24.7074 82.3841Z" fill="#121C2D"/>
<path d="M77.1233 39.4248C78.9328 40.9043 80.8167 42.3017 82.7528 43.6168L77.1233 39.4248Z" fill="white"/>
<path d="M82.7752 43.2507C82.6337 43.0863 81.4125 42.1896 80.2285 41.263C79.037 40.3439 77.8828 39.3874 77.7488 39.2753C77.3914 38.9839 76.6541 39.6863 77.1531 40.0898C77.2871 40.2019 78.5158 41.1509 79.7742 42.0327C81.0252 42.9219 82.306 43.7364 82.4177 43.7738C82.6709 43.8709 82.9464 43.445 82.7826 43.2507H82.7752Z" fill="#121C2D"/>
<path d="M79.8264 44.8872C79.3647 44.8946 78.1881 44.9245 76.468 44.9544C75.6042 44.9768 74.6138 45.0067 73.5043 45.0366C72.3948 45.059 71.181 45.1412 69.9374 44.9544C68.7013 44.7676 67.4056 44.2445 66.0131 43.7663C64.6281 43.2806 63.176 42.765 61.6867 42.2419C61.3144 42.1074 60.9346 41.9804 60.5548 41.8459C60.1602 41.7114 59.7283 41.5843 59.2443 41.5769C58.2315 41.5769 57.4199 42.1672 56.7944 42.7127C55.5583 43.8336 54.337 44.9469 53.0786 46.0454C48.0745 50.4467 42.8322 54.5341 38.6324 57.5605C34.4326 60.5869 31.3199 62.6044 30.6572 63.0303C27.2169 65.2422 26.8297 66.6844 31.521 63.673C32.1688 63.2471 35.3485 61.1772 39.6153 58.0611C43.8822 54.9451 49.1915 50.7381 54.2104 46.2322C54.8359 45.6643 55.4614 45.1039 56.0795 44.536C56.705 43.983 57.3007 43.3628 57.9113 42.9219C58.5368 42.4661 59.1698 42.3017 59.8847 42.5184C60.5995 42.7276 61.3888 43.0265 62.126 43.2731C63.6153 43.7887 65.06 44.2894 66.4301 44.7601C67.7854 45.2384 69.1555 45.7166 70.5033 45.7913C71.8288 45.881 73.0128 45.7839 74.0777 45.754C75.1425 45.7166 76.0882 45.6793 76.885 45.6494C78.486 45.5821 79.5061 45.5373 79.7668 45.5298C82.0603 45.3878 81.9784 44.8797 79.8338 44.8872H79.8264Z" fill="#121C2D"/>
<path d="M33.2486 62.1635C35.5346 63.1873 37.6494 64.607 39.4738 66.3332L33.2486 62.1635Z" fill="white"/>
<path d="M39.5409 65.9745C39.4217 65.7727 38.2228 64.607 36.8601 63.6655C35.5123 62.7016 34.0156 61.9693 33.8443 61.8871C33.3752 61.6704 32.8613 62.5446 33.4571 62.8211C33.6209 62.8958 35.0953 63.5684 36.4357 64.4501C37.7909 65.3095 38.9898 66.3705 39.1015 66.4378C39.3472 66.5798 39.6898 66.2061 39.5483 65.9745H39.5409Z" fill="#121C2D"/>
<path d="M85.9325 87.6746C86.3122 86.9572 85.791 86.0979 84.9719 86.0979C79.5583 86.083 71.0916 83.0865 67.1375 80.7326C59.4602 76.167 51.8946 71.3921 44.5747 66.2659C44.0683 65.9073 43.5173 65.5336 42.8992 65.5187C41.8642 65.4963 41.0972 66.4303 40.5015 67.2822C36.0112 73.6712 31.4763 80.1274 28.4605 87.3383C27.9839 88.4741 27.552 89.7519 27.9913 90.8952C28.3562 91.8293 29.2275 92.457 30.0466 93.0324C35.9814 97.202 41.5961 101.835 46.8161 106.871C49.4745 109.434 52.0361 112.102 54.486 114.874C56.2806 116.899 57.3603 118.895 58.6337 121.091C60.3538 124.066 64.4792 127.174 67.8375 127.891C71.1959 128.609 74.6287 128.392 78.0392 128.175C84.3538 127.779 90.661 127.383 96.9756 126.987C102.024 126.673 107.088 126.352 112.062 125.433C117.185 124.484 122.175 122.907 127.141 121.331C133.97 119.179 140.776 117.086 147.746 115.442C151.022 114.673 154.582 114.755 157.94 114.523C163.242 114.165 168.469 113.843 173.704 112.939C175.536 112.625 178.887 112.782 177.934 110.002C176.512 106.423 172.84 104.592 169.854 102.59C166.079 100.056 161.708 98.3677 157.449 96.6789C141.826 90.4842 124.863 85.5972 107.959 85.5823C107.259 85.5823 106.678 86.1203 106.611 86.8153C106.127 91.8891 104.325 97.0077 101.332 101.207C97.9958 105.885 92.4333 108.911 86.975 109.614C84.5698 109.928 81.7699 109.091 80.6082 106.954C79.8413 105.534 79.6104 102.597 79.8859 101.005C80.5114 97.3514 82.0677 94.9976 83.7804 91.7097L85.9325 87.6671V87.6746Z" fill="#F2BE5A"/>
<path d="M64.1962 97.1347C63.9579 97.3365 63.0345 98.2257 61.858 99.5409C60.6814 100.856 59.2666 102.62 57.9784 104.458C55.3646 108.134 53.4434 112.207 53.2275 112.692C52.6541 113.963 53.436 114.68 54.1881 113.006C54.3966 112.543 56.288 108.441 58.8421 104.772C61.3218 101.058 64.4047 97.8596 64.6281 97.6055C65.1195 97.0152 64.7472 96.664 64.1887 97.1347H64.1962Z" fill="#121C2D"/>
<path d="M109.888 63.1275C110.037 63.0677 110.901 62.3802 111.794 61.76C112.688 61.1323 113.619 60.5644 113.723 60.4972C114.006 60.3253 113.566 59.4062 113.164 59.6603C113.053 59.7275 112.099 60.3701 111.213 61.08C110.327 61.7899 109.516 62.5596 109.471 62.6418C109.367 62.8136 109.709 63.1947 109.888 63.1275Z" fill="#121C2D"/>
<path d="M87.4739 81.0241C87.3697 81.6891 87.1314 83.4227 86.6771 85.926C86.6325 86.2473 86.5282 86.5313 86.5282 86.9796C86.5282 87.3906 86.6697 87.824 86.9452 88.1827C87.4962 88.7954 88.092 89.2961 88.8143 89.7669C90.2515 90.6934 92.0684 91.3062 94.0566 91.4556C95.0544 91.5304 96.0895 91.493 97.1395 91.3211C98.1969 91.1343 99.2096 90.8504 100.267 90.5216C101.317 90.1779 102.374 89.7444 103.387 89.1616C103.893 88.8702 104.385 88.5414 104.854 88.1902C105.085 88.0108 105.323 87.824 105.547 87.6297C105.658 87.5326 105.77 87.4354 105.882 87.3383L106.165 87.0842C106.165 87.0842 106.261 87.0768 106.276 87.1141C106.276 87.1216 106.276 87.1366 106.276 87.144C106.276 87.144 106.276 87.1515 106.276 87.1665L106.254 87.2711L106.157 87.697C106.023 88.2724 105.897 88.8478 105.762 89.4231C105.472 90.5739 105.137 91.7321 104.75 92.8754C103.983 95.162 103 97.4037 101.719 99.4661C100.438 101.529 98.867 103.389 96.9756 104.824C95.0917 106.274 92.9843 107.342 90.8248 108.052C88.6728 108.769 86.4537 109.233 84.4804 108.814C82.5145 108.411 81.0476 106.901 80.4742 105.227C80.1764 104.391 80.0795 103.516 80.1168 102.687C80.154 101.865 80.3551 101.05 80.5412 100.281C80.921 98.7488 81.4199 97.4112 81.8965 96.2903C82.8645 94.0411 83.6911 92.6064 83.9666 92.0983C85.4336 89.468 86.275 87.7344 86.1186 87.4878C85.9921 87.2561 84.8304 88.4741 82.8199 92.0983C82.5592 92.6139 81.7103 94.0934 80.7572 96.4622C80.288 97.6503 79.7891 99.0626 79.4391 100.699C79.0296 102.306 78.9402 104.398 79.8859 106.289C80.3551 107.23 81.0625 108.082 81.9784 108.739C82.8943 109.39 84.0262 109.778 85.1729 109.883C87.4888 110.077 89.8047 109.442 92.0312 108.62C94.2726 107.768 96.4544 106.535 98.3532 104.891C100.267 103.247 101.816 101.185 103.045 98.9879C104.281 96.7835 105.204 94.4297 105.926 92.0759C106.284 90.8952 106.596 89.7146 106.85 88.5339L107.051 87.6522L107.103 87.4355L107.125 87.3234C107.133 87.2561 107.148 87.1889 107.14 87.1216C107.14 86.8526 107.006 86.5911 106.798 86.4192C106.589 86.2548 106.314 86.1801 106.045 86.2324C105.777 86.2698 105.547 86.5089 105.487 86.5686C105.278 86.7629 105.063 86.9497 104.847 87.1291C103.112 88.6086 101.064 89.4829 99.0234 90.0434C97.9958 90.3348 97.0054 90.5739 96.0299 90.6486C95.0544 90.7383 94.0938 90.7009 93.1854 90.5589C91.3684 90.2825 89.7749 89.5875 88.5685 88.6759C88.2707 88.4442 87.9877 88.2051 87.742 87.9511C87.4665 87.7119 87.3548 87.5027 87.2803 87.2188C87.2133 86.9348 87.2505 86.7106 87.3175 86.3669C87.3697 86.0456 87.4218 85.7392 87.4739 85.4478C87.8686 83.1014 88.0473 81.592 88.092 81.2109C88.2781 79.5072 88.2037 78.6702 88.0622 78.6553C87.9132 78.6403 87.7122 79.4399 87.4739 81.0017V81.0241Z" fill="#121C2D"/>
</g>
<path d="M109.65 128.736C107.773 127.832 106.76 125.672 106.656 123.587C106.552 121.502 107.207 119.462 107.907 117.497C108.451 115.973 109.076 114.389 110.327 113.365C111.012 112.805 111.831 112.408 112.695 112.199C119.531 110.518 127.417 114.561 134.938 114.434C138.237 114.374 141.453 113.425 144.611 112.446C151.007 110.473 157.374 108.403 163.696 106.214C165.275 105.668 167.166 104.592 168.819 104.413C173.54 103.905 177.844 107.118 180.883 110.779C183.921 114.434 185.418 118.297 187.123 122.743C172.863 123.206 158.781 123.408 143.323 122.833C141.275 122.758 137.857 122.466 135.891 123.064C133.746 123.722 130.924 124.222 128.839 125.067C127.253 125.717 125.54 126.023 123.984 126.741C122.428 127.458 120.968 128.721 120.67 130.417C120.544 131.149 120.648 131.912 120.514 132.651C120.38 133.391 119.896 134.153 119.159 134.243C118.824 134.28 118.481 134.176 118.161 134.071C116.895 133.66 115.629 133.249 114.371 132.838C113.291 132.487 112.196 132.128 111.303 131.433C110.409 130.738 109.739 129.64 109.873 128.512" fill="white"/>
<path d="M120.693 134.161C120.626 134.198 120.432 134.288 120.127 134.295C119.821 134.295 119.382 134.191 118.973 133.892C118.548 133.593 118.265 133.122 118.161 132.48C118.049 131.852 118.124 131.142 118.265 130.425C118.95 127.48 119.628 124.559 119.71 124.208C119.918 123.296 118.987 122.84 118.712 124.066C118.645 124.424 117.975 127.391 117.364 130.425C117.238 131.202 117.185 132.039 117.386 132.816C117.483 133.197 117.64 133.571 117.878 133.892C118.109 134.206 118.392 134.437 118.675 134.609C119.248 134.953 119.844 135.043 120.276 134.983C120.715 134.916 120.968 134.751 121.02 134.706C121.281 134.505 121.251 134.273 121.154 134.191C121.043 134.094 120.871 134.086 120.7 134.153L120.693 134.161Z" fill="#121C2D"/>
<path d="M114.862 132.973C114.743 132.838 114.125 132.233 113.969 131.075C113.775 129.939 114.177 128.4 114.512 126.83C115.175 123.707 115.83 120.598 115.912 120.232C116.106 119.268 115.175 118.812 114.907 120.12C114.84 120.486 114.222 123.669 113.611 126.83C113.313 128.377 112.926 130.044 113.246 131.381C113.529 132.711 114.333 133.391 114.438 133.458C114.981 133.795 115.175 133.294 114.87 132.988L114.862 132.973Z" fill="#121C2D"/>
<path d="M112.77 131.777C112.598 131.687 111.735 131.336 111.124 130.245C110.811 129.715 110.588 129.05 110.521 128.295C110.446 127.548 110.513 126.733 110.64 125.911C111.28 122.623 112.01 119.283 112.077 118.902C112.286 117.878 111.355 117.408 111.072 118.797C111.035 118.992 110.848 119.933 110.595 121.256C110.357 122.586 109.992 124.237 109.731 125.971C109.62 126.845 109.583 127.742 109.709 128.594C109.828 129.446 110.156 130.215 110.551 130.798C111.34 132.001 112.405 132.353 112.524 132.375C113.179 132.502 113.187 131.971 112.755 131.777H112.77Z" fill="#121C2D"/>
<path d="M186.669 119.978C186.43 119.231 185.797 117.273 184.226 114.747C182.662 112.207 180.041 109.315 176.638 106.386C175.759 105.668 174.777 104.981 173.63 104.503C172.483 104.017 171.18 103.815 169.892 103.89C167.285 104.039 164.821 105.071 162.304 105.915C157.24 107.671 151.901 109.517 146.562 111.37C143.896 112.289 141.23 113.186 138.534 113.664C137.187 113.903 135.839 114.037 134.498 114.03C133.158 114.03 131.833 113.903 130.53 113.716C127.923 113.35 125.414 112.745 122.979 112.267C120.544 111.788 118.191 111.43 115.934 111.415C113.693 111.415 111.489 111.878 109.88 113.088C108.257 114.299 107.468 115.995 107.036 117.385C106.604 118.797 106.44 120.008 106.314 120.927C106.194 121.839 106.127 122.496 106.105 122.848C105.964 124.633 106.276 126.21 106.939 127.122C107.609 128.041 108.324 128.153 108.413 128.093C108.473 128.056 108.428 127.951 108.272 127.787C108.123 127.622 107.885 127.368 107.661 126.957C107.177 126.158 106.902 124.596 107.162 122.302C107.2 121.988 107.267 121.338 107.401 120.434C107.542 119.537 107.728 118.364 108.205 117.064C108.682 115.786 109.523 114.366 111.057 113.499C112.569 112.618 114.609 112.311 116.776 112.408C118.958 112.498 121.296 112.902 123.738 113.395C126.181 113.888 128.757 114.486 131.475 114.777C132.83 114.927 134.23 114.994 135.638 114.927C137.045 114.852 138.46 114.643 139.845 114.329C142.63 113.716 145.333 112.737 148.014 111.803C153.383 109.92 158.737 108.045 163.778 106.281C166.28 105.399 168.737 104.518 171.105 104.704C173.473 104.854 175.402 106.281 176.981 107.693C178.589 109.143 180.011 110.548 181.195 111.893C182.372 113.238 183.288 114.538 183.98 115.681C185.358 117.983 185.864 119.649 186.021 120.045C186.661 121.861 186.966 122.765 187.123 122.728C187.249 122.706 187.22 121.734 186.676 119.971L186.669 119.978Z" fill="#121C2D"/>
<path d="M185.313 122.392C184.286 122.339 180.011 122.257 174.129 122.287C168.246 122.339 160.762 122.407 153.286 122.474C149.555 122.489 145.825 122.459 142.302 122.377C138.795 122.28 135.347 122.324 132.488 123.341C131.058 123.834 129.867 124.484 128.757 124.917C127.663 125.381 126.657 125.553 125.704 125.762C124.766 125.964 123.932 126.307 123.388 126.696C122.837 127.077 122.517 127.421 122.353 127.6C121.504 128.549 121.206 129.588 121.147 130.29C121.095 131.007 121.259 131.411 121.378 131.456C121.512 131.501 121.601 131.209 121.795 130.589C122.003 129.984 122.346 128.99 123.366 128.004C123.507 127.869 123.798 127.608 124.267 127.331C124.736 127.055 125.436 126.83 126.359 126.644C127.275 126.472 128.452 126.158 129.599 125.642C130.76 125.149 131.959 124.506 133.322 124.103C136.062 123.236 139.421 123.251 142.98 123.333C146.554 123.393 150.33 123.4 154.098 123.363C161.626 123.251 169.11 123.139 174.866 123.057C180.615 122.99 184.628 123.034 185.202 123.034C187.778 123.012 187.711 122.504 185.306 122.392H185.313Z" fill="#121C2D"/>
</svg>
